<svg xmlns="http://www.w3.org/2000/svg" xml:space="preserve" id="svg1285" width="330" height="261.674" style="max-height:500px" viewBox="336 3.995 330 261.674"><path id="rect1929" d="M0 0h1000v286.643H0z" style="opacity:.5;fill:#e5e5e5;fill-opacity:1;fill-rule:evenodd;stroke:none;stroke-width:.14294769px;stroke-linecap:butt;stroke-linejoin:miter;stroke-miterlimit:4;stroke-dasharray:none;stroke-dashoffset:0;stroke-opacity:1;marker:none"/><g id="g929" transform="translate(0 13.321)"><g id="g1168" transform="matrix(5.12079 0 0 4.74115 45.484 -7057.152)"><path id="path1162" d="M77.792 1533.05c0 .32-.064.61-.192.88s-.3.5-.516.7q-.324.285-.756.45c-.288.11-.596.16-.924.16h-4.02v-8.52h4.104c.296 0 .564.07.804.19.24.13.444.3.612.5.168.21.298.44.39.7a2.33 2.33 0 0 1-.186 1.97 2.07 2.07 0 0 1-.9.8c.488.14.874.41 1.158.8s.426.85.426 1.37m-.84-.15q0-.315-.108-.6c-.072-.2-.174-.37-.306-.52a1.5 1.5 0 0 0-.468-.36c-.18-.09-.374-.14-.582-.14h-3.264v3.23h3.18c.216 0 .418-.04.606-.13s.352-.21.492-.35c.14-.15.25-.33.33-.52.08-.2.12-.4.12-.61m-4.728-5.45v3.15h2.928c.208 0 .402-.04.582-.13s.334-.21.462-.35.228-.31.3-.5.108-.38.108-.59c0-.22-.034-.42-.102-.62a1.5 1.5 0 0 0-.288-.49c-.124-.14-.27-.26-.438-.34a1.3 1.3 0 0 0-.552-.13z" style="fill:#1d2167;fill-rule:nonzero"/><path id="path1164" d="M88.436 1526.72h.708l3.54 8.52h-.888l-1.104-2.66h-3.828l-1.092 2.66h-.9zm2.064 5.2-1.716-4.21-1.74 4.21z" style="fill:#1d2167;fill-rule:nonzero"/><path id="path1166" d="M105.716 1527.47h-3.036v7.77h-.84v-7.77h-3.036v-.75h6.912z" style="fill:#1d2167;fill-rule:nonzero"/></g><g id="g6103" transform="translate(-949.56 -170.633)scale(.31374)"><g id="g1172"><path id="path1170" d="M4399.57 773.907s35.33 20.718 42.25 24.779c13.1 7.683 47.96 27.832 64.24 37.232a5.76 5.76 0 0 1 2.87 4.975 5.75 5.75 0 0 1-2.85 4.986c-27.1 15.803-110.2 64.254-128.26 74.788a6.82 6.82 0 0 1-6.95-.046c-13.57-8.147-62.93-37.791-75.02-44.875-16.93-9.911-37.27-21.84-37.27-21.84z" style="fill:url(#_Linear1)"/></g><g id="g1176"><path id="path1174" d="M4269.48 860.305c-54.5-31.918-88.34-51.732-117.18-68.621a13.05 13.05 0 0 1-6.44-11.228c0-4.619 2.45-8.893 6.44-11.229l319.41-187.171a6.54 6.54 0 0 1 6.56-.032 6.56 6.56 0 0 1 3.29 5.678v138.732c0 7.842-4.16 15.094-10.94 19.049-13.32 7.783-54.43 31.465-67.73 39.233 0 0-133.3 75.654-133.41 75.589" style="fill:#31369e"/></g><g id="g1180"><path id="path1178" d="m4604.42 705.593 85.54 34.367v-63.802a7.52 7.52 0 0 0-3.62-6.431 7.51 7.51 0 0 0-7.37-.247c-5.93 3.078-74.55 36.113-74.55 36.113" style="fill:#1d2167"/></g><g id="g1184"><path id="path1182" d="m4976.91 704.019-8.56-5c-79.92-46.83-170.16-99.71-199.6-116.963a6.54 6.54 0 0 0-6.56-.032 6.53 6.53 0 0 0-3.29 5.678v138.732c0 7.842 4.16 15.094 10.93 19.049 13.33 7.783 68.33 39.913 68.33 39.913z" style="fill:url(#_Linear2)"/></g><g id="g1188"><path id="path1186" d="M4968.44 699.073s-235.66 138.235-263.83 154.762a9.74 9.74 0 0 1-9.76.05 9.74 9.74 0 0 1-4.89-8.44V731.796s-111.16-50.383-128.47-59.371c-2.33-1.212-4.978-.85-7.37.247-1.96.898-3.62 3.803-3.62 6.431v166.342c0 3.487.43 15.045-12.02 22.226-2.41 1.392-130.21 75.278-130.21 75.278l211.99 122.751s377.71-221.201 467.9-274.016a13.02 13.02 0 0 0 0-22.457z" style="fill:url(#_Linear3)"/></g></g><g id="g1262" transform="matrix(.23843 0 0 .22787 322.211 -286.36)"><g id="g1192"><path id="path1190" d="M374.487 2270.67h4.788l23.94 57.61h-6.006l-7.465-18.01h-25.887l-7.385 18.01h-6.086zm13.958 35.14-11.604-28.49-11.767 28.49z" style="fill:#1d2167;fill-rule:nonzero"/></g><g id="g1196"><path id="path1194" d="M421.293 2307.02c0-2.97.514-5.78 1.542-8.44 1.028-2.65 2.475-4.96 4.342-6.94 1.866-1.97 4.098-3.52 6.695-4.66 2.596-1.14 5.464-1.7 8.602-1.7 4.003 0 7.492.9 10.468 2.71 2.975 1.82 5.221 4.26 6.735 7.35l-5.356 1.7a12.9 12.9 0 0 0-4.99-5.07q-3.206-1.83-7.101-1.83c-2.164 0-4.179.44-6.046 1.3a15.6 15.6 0 0 0-4.869 3.53c-1.379 1.49-2.461 3.26-3.246 5.32-.784 2.05-1.176 4.3-1.176 6.73 0 2.38.405 4.63 1.217 6.74.811 2.11 1.92 3.94 3.327 5.48a15.8 15.8 0 0 0 4.91 3.65c1.866.89 3.854 1.34 5.964 1.34q2.03 0 4.017-.57a15.8 15.8 0 0 0 3.692-1.58c1.137-.68 2.11-1.45 2.922-2.32.811-.86 1.379-1.78 1.704-2.75l5.437 1.62a13.9 13.9 0 0 1-2.597 4.18 17.7 17.7 0 0 1-4.017 3.32c-1.541.95-3.246 1.68-5.112 2.2-1.867.51-3.801.77-5.802.77-3.084 0-5.924-.59-8.521-1.75a20.6 20.6 0 0 1-6.736-4.79 22.2 22.2 0 0 1-4.422-7.02q-1.583-3.975-1.583-8.52" style="fill:#1d2167;fill-rule:nonzero"/></g><g id="g1200"><path id="path1198" d="M476.962 2329.1q-3.002 0-5.558-1.02a13.9 13.9 0 0 1-4.464-2.8 12.6 12.6 0 0 1-2.962-4.18c-.703-1.59-1.055-3.31-1.055-5.15s.433-3.54 1.299-5.11 2.083-2.92 3.652-4.06q2.352-1.71 5.599-2.64 3.246-.93 7.141-.93 3.246 0 6.573.57t5.924 1.62v-3.81c0-3.74-1.055-6.7-3.165-8.89s-5.031-3.29-8.764-3.29c-2.164 0-4.382.44-6.654 1.3-2.272.87-4.572 2.11-6.898 3.74l-1.948-3.66c5.465-3.67 10.766-5.51 15.906-5.51 5.302 0 9.467 1.48 12.497 4.46 3.03 2.97 4.544 7.09 4.544 12.33v19.07q0 2.28 2.029 2.28v4.86c-.919.17-1.623.25-2.11.25-1.406 0-2.502-.35-3.286-1.06-.785-.7-1.204-1.67-1.258-2.92l-.162-3.33q-2.922 3.825-7.345 5.85c-2.948 1.35-6.126 2.03-9.535 2.03m1.299-4.22c2.867 0 5.504-.54 7.912-1.63 2.407-1.08 4.233-2.51 5.478-4.3.486-.48.852-1.01 1.095-1.58.244-.57.365-1.09.365-1.58v-6.9a34 34 0 0 0-5.721-1.62q-2.962-.57-6.046-.57-5.843 0-9.494 2.43c-2.435 1.63-3.652 3.76-3.652 6.41q0 1.95.771 3.66a9.3 9.3 0 0 0 2.11 2.96c.893.84 1.961 1.5 3.205 1.99 1.245.48 2.57.73 3.977.73" style="fill:#1d2167;fill-rule:nonzero"/></g><g id="g1204"><path id="path1202" d="M528.158 2326.26c-.325.16-.798.38-1.42.65q-.933.405-2.151.81c-.811.27-1.731.51-2.759.73-1.028.21-2.11.32-3.246.32-1.19 0-2.326-.16-3.408-.49a7.8 7.8 0 0 1-2.84-1.5q-1.218-1.005-1.948-2.55t-.73-3.57v-30.27h-5.843v-4.38h5.843v-14.29h5.518v14.29h9.738v4.38h-9.738v28.73c.108 1.56.663 2.71 1.664 3.44s2.15 1.1 3.448 1.1c1.569 0 2.949-.26 4.139-.77 1.19-.52 1.948-.88 2.272-1.1z" style="fill:#1d2167;fill-rule:nonzero"/></g><g id="g1208"><path id="path1206" d="M547.959 2307.02c0-2.97.514-5.78 1.542-8.44 1.027-2.65 2.475-4.96 4.341-6.94 1.866-1.97 4.098-3.52 6.695-4.66s5.464-1.7 8.602-1.7c4.003 0 7.493.9 10.468 2.71 2.976 1.82 5.221 4.26 6.736 7.35l-5.356 1.7a12.9 12.9 0 0 0-4.991-5.07q-3.205-1.83-7.101-1.83c-2.164 0-4.179.44-6.045 1.3-1.867.87-3.49 2.05-4.869 3.53-1.38 1.49-2.462 3.26-3.246 5.32-.785 2.05-1.177 4.3-1.177 6.73 0 2.38.406 4.63 1.217 6.74.812 2.11 1.921 3.94 3.327 5.48a15.8 15.8 0 0 0 4.91 3.65c1.866.89 3.855 1.34 5.965 1.34q2.028 0 4.016-.57c1.326-.38 2.557-.91 3.693-1.58 1.136-.68 2.11-1.45 2.921-2.32.812-.86 1.38-1.78 1.704-2.75l5.437 1.62a13.9 13.9 0 0 1-2.596 4.18 17.7 17.7 0 0 1-4.017 3.32c-1.542.95-3.246 1.68-5.113 2.2-1.866.51-3.8.77-5.802.77-3.084 0-5.924-.59-8.521-1.75a20.6 20.6 0 0 1-6.735-4.79 22.1 22.1 0 0 1-4.423-7.02q-1.582-3.975-1.582-8.52" style="fill:#1d2167;fill-rule:nonzero"/></g><g id="g1212"><path id="path1210" d="M593.24 2269.05h5.519v49.66q0 2.355 1.298 3.69c.866.89 2.083 1.34 3.652 1.34q.892 0 2.11-.24a14 14 0 0 0 2.272-.65l.974 4.46c-1.028.43-2.286.79-3.774 1.06s-2.772.4-3.854.4c-2.543 0-4.545-.72-6.005-2.15-1.461-1.43-2.192-3.45-2.192-6.04z" style="fill:#1d2167;fill-rule:nonzero"/></g><g id="g1216"><path id="path1214" d="M630.651 2329.1c-3.084 0-5.897-.59-8.44-1.75s-4.747-2.74-6.614-4.75c-1.866-2-3.313-4.32-4.341-6.97a23 23 0 0 1-1.542-8.36c0-2.98.527-5.79 1.582-8.44s2.516-4.98 4.383-6.98 4.071-3.6 6.613-4.79 5.329-1.78 8.359-1.78c3.029 0 5.829.59 8.399 1.78s4.788 2.79 6.654 4.79c1.867 2 3.327 4.33 4.382 6.98s1.583 5.46 1.583 8.44c0 2.92-.514 5.7-1.542 8.36-1.028 2.65-2.475 4.97-4.342 6.97-1.866 2.01-4.084 3.59-6.654 4.75s-5.397 1.75-8.48 1.75m-15.338-21.75c0 2.38.406 4.58 1.218 6.61s1.907 3.82 3.286 5.36a14.95 14.95 0 0 0 4.869 3.61c1.867.86 3.855 1.3 5.965 1.3s4.098-.45 5.964-1.34a15.8 15.8 0 0 0 4.91-3.65q2.11-2.31 3.327-5.4c.812-2.06 1.217-4.27 1.217-6.65 0-2.33-.405-4.53-1.217-6.62q-1.217-3.12-3.327-5.43a15.9 15.9 0 0 0-4.91-3.66 13.7 13.7 0 0 0-5.964-1.34c-2.11 0-4.085.45-5.924 1.34-1.84.9-3.463 2.13-4.869 3.7-1.407 1.56-2.516 3.39-3.327 5.47-.812 2.09-1.218 4.32-1.218 6.7" style="fill:#1d2167;fill-rule:nonzero"/></g><g id="g1220"><path id="path1218" d="M694.029 2328.28h-5.518v-23.61q0-7.545-2.232-10.95c-1.488-2.28-3.773-3.41-6.857-3.41-1.623 0-3.246.29-4.869.89a16.1 16.1 0 0 0-4.504 2.52 19 19 0 0 0-3.692 3.85 15.2 15.2 0 0 0-2.354 4.83v25.88h-5.518v-42.27h5.032v9.57c1.731-3.08 4.206-5.57 7.425-7.46 3.219-1.9 6.722-2.84 10.509-2.84q3.49 0 5.924 1.29c1.623.87 2.921 2.09 3.895 3.65.974 1.57 1.677 3.5 2.11 5.77s.649 4.79.649 7.54z" style="fill:#1d2167;fill-rule:nonzero"/></g><g id="g1224"><path id="path1222" d="M721.62 2329.1c-3.084 0-5.91-.59-8.48-1.75a20.7 20.7 0 0 1-6.695-4.79 22.2 22.2 0 0 1-4.423-7.02q-1.582-3.975-1.582-8.52 0-4.455 1.582-8.4c1.055-2.62 2.516-4.92 4.382-6.89q2.8-2.97 6.695-4.71t8.44-1.74q4.625 0 8.48 1.74c2.57 1.16 4.775 2.74 6.614 4.75 1.839 2 3.273 4.3 4.301 6.89q1.542 3.9 1.542 8.28v1.3c0 .43-.027.73-.081.89h-36.193c.162 2.28.689 4.37 1.582 6.29s2.042 3.59 3.449 4.99a15.5 15.5 0 0 0 4.828 3.29c1.813.78 3.747 1.18 5.803 1.18q2.029 0 4.057-.57c1.353-.38 2.597-.89 3.733-1.54a14 14 0 0 0 3.084-2.4 10.3 10.3 0 0 0 2.11-3.12l4.787 1.3a14 14 0 0 1-2.759 4.26 19 19 0 0 1-4.138 3.32c-1.569.95-3.3 1.68-5.194 2.2-1.893.51-3.868.77-5.924.77m15.581-24.19q-.244-3.405-1.582-6.21c-.893-1.86-2.029-3.47-3.409-4.82a15.2 15.2 0 0 0-4.788-3.17c-1.812-.76-3.746-1.13-5.802-1.13s-4.003.37-5.843 1.13a15 15 0 0 0-4.828 3.17c-1.38 1.35-2.489 2.97-3.327 4.87-.839 1.89-1.339 3.95-1.502 6.16z" style="fill:#1d2167;fill-rule:nonzero"/></g><g id="g1228"><path id="path1226" d="M818.344 2286.01h5.437l-18.178 42.27h-4.544l-9.089-21.58-9.008 21.58h-4.544l-18.178-42.27h5.356l15.418 36.59 8.034-19.31-7.222-17.2h4.626l5.518 13.79 5.518-13.79h4.707l-7.223 17.2 8.034 19.31z" style="fill:#1d2167;fill-rule:nonzero"/></g><g id="g1232"><path id="path1230" d="M828.65 2328.28v-42.27h5.518v42.27zm0-51.12v-8.11h5.518v8.11z" style="fill:#1d2167;fill-rule:nonzero"/></g><g id="g1236"><path id="path1234" d="M864.193 2326.26c-.324.16-.798.38-1.42.65q-.933.405-2.15.81c-.812.27-1.731.51-2.759.73-1.028.21-2.11.32-3.246.32-1.19 0-2.327-.16-3.409-.49a7.8 7.8 0 0 1-2.84-1.5q-1.217-1.005-1.947-2.55t-.731-3.57v-30.27h-5.843v-4.38h5.843v-14.29h5.518v14.29h9.738v4.38h-9.738v28.73c.109 1.56.663 2.71 1.664 3.44s2.15 1.1 3.449 1.1c1.569 0 2.948-.26 4.139-.77 1.19-.52 1.947-.88 2.272-1.1z" style="fill:#1d2167;fill-rule:nonzero"/></g><g id="g1240"><path id="path1238" d="M904.201 2328.28h-5.519v-23.61c0-4.81-.825-8.41-2.475-10.79q-2.475-3.57-7.263-3.57-2.353 0-4.666.93a17 17 0 0 0-4.341 2.56 17.5 17.5 0 0 0-3.53 3.81 16.2 16.2 0 0 0-2.232 4.79v25.88h-5.518v-59.23h5.518v26.53c1.677-3.19 4.003-5.71 6.979-7.55 2.975-1.83 6.194-2.75 9.657-2.75 2.434 0 4.49.44 6.167 1.33 1.677.9 3.057 2.14 4.139 3.74q1.623 2.385 2.353 5.76c.487 2.24.731 4.72.731 7.42z" style="fill:#1d2167;fill-rule:nonzero"/></g><g id="g1244"><path id="path1242" d="M983.314 2286.01h5.437l-18.177 42.27h-4.545l-9.088-21.58-9.008 21.58h-4.545l-18.177-42.27h5.356l15.418 36.59 8.034-19.31-7.222-17.2h4.625l5.519 13.79 5.518-13.79h4.707l-7.223 17.2 8.034 19.31z" style="fill:#1d2167;fill-rule:nonzero"/></g><g id="g1248"><path id="path1246" d="M993.62 2328.28v-42.27h5.519v42.27zm0-51.12v-8.11h5.519v8.11z" style="fill:#1d2167;fill-rule:nonzero"/></g><g id="g1252"><path id="path1250" d="M1044.42 2328.28h-5.52v-23.61c0-5.03-.74-8.68-2.23-10.95-1.49-2.28-3.77-3.41-6.86-3.41-1.62 0-3.24.29-4.87.89q-2.43.885-4.5 2.52a19 19 0 0 0-3.69 3.85c-1.08 1.49-1.87 3.1-2.36 4.83v25.88h-5.51v-42.27h5.03v9.57c1.73-3.08 4.2-5.57 7.42-7.46 3.22-1.9 6.73-2.84 10.51-2.84 2.33 0 4.3.43 5.93 1.29 1.62.87 2.92 2.09 3.89 3.65.97 1.57 1.68 3.5 2.11 5.77s.65 4.79.65 7.54z" style="fill:#1d2167;fill-rule:nonzero"/></g><g id="g1256"><path id="path1254" d="M1070.71 2328.85c-2.92 0-5.58-.61-7.99-1.82a20.7 20.7 0 0 1-6.25-4.83c-1.76-2-3.12-4.3-4.1-6.9-.97-2.6-1.46-5.27-1.46-8.03 0-2.92.48-5.72 1.42-8.4q1.425-4.02 4.02-7.02c1.73-2 3.8-3.6 6.21-4.79 2.4-1.19 5.07-1.78 7.99-1.78 3.63 0 6.76.9 9.41 2.71 2.66 1.82 4.93 4.1 6.82 6.86v-8.84h4.95v42.44c0 2.92-.55 5.5-1.66 7.75q-1.665 3.36-4.47 5.64c-1.86 1.51-4.05 2.65-6.57 3.4-2.51.76-5.18 1.14-7.99 1.14-4.87 0-8.79-.86-11.77-2.6a20.8 20.8 0 0 1-7.22-6.97l3.41-2.68c1.67 2.7 3.89 4.69 6.65 5.96s5.74 1.91 8.93 1.91c2.05 0 4-.28 5.84-.85q2.76-.855 4.83-2.52c1.38-1.11 2.47-2.51 3.29-4.22.81-1.7 1.21-3.69 1.21-5.96v-8.36c-1.62 2.7-3.84 4.84-6.65 6.41s-5.76 2.35-8.85 2.35m1.55-4.62c1.62 0 3.21-.3 4.78-.89q2.355-.9 4.26-2.4c1.28-1 2.34-2.12 3.21-3.37.86-1.24 1.43-2.51 1.7-3.81v-13.07c-.59-1.51-1.4-2.92-2.43-4.22-1.03-1.29-2.19-2.4-3.49-3.32s-2.69-1.65-4.18-2.19c-1.49-.55-2.99-.82-4.5-.82-2.39 0-4.51.5-6.37 1.5a15.4 15.4 0 0 0-4.75 3.94c-1.3 1.62-2.29 3.46-2.96 5.52-.68 2.06-1.02 4.14-1.02 6.25 0 2.27.41 4.43 1.22 6.49s1.93 3.86 3.37 5.4c1.43 1.54 3.09 2.76 4.99 3.65 1.89.89 3.95 1.34 6.17 1.34" style="fill:#1d2167;fill-rule:nonzero"/></g><g id="g1260"><path id="path1258" d="M1115.51 2329.1c-3.3 0-6.52-.55-9.66-1.63s-5.84-2.65-8.11-4.7l2.51-3.74c2.38 1.95 4.8 3.41 7.27 4.39 2.46.97 5.09 1.46 7.91 1.46 3.41 0 6.12-.69 8.15-2.07s3.05-3.34 3.05-5.89c0-1.19-.27-2.17-.82-2.96-.54-.78-1.33-1.47-2.39-2.07-1.05-.59-2.38-1.12-3.98-1.58-1.59-.46-3.44-.93-5.56-1.42-2.43-.59-4.54-1.19-6.32-1.78-1.79-.6-3.26-1.28-4.43-2.03-1.16-.76-2.03-1.69-2.59-2.8-.57-1.11-.86-2.51-.86-4.18 0-2.11.42-3.98 1.26-5.6.84-1.63 1.98-2.96 3.41-4.02 1.43-1.05 3.11-1.85 5.03-2.39s3.96-.81 6.13-.81c3.24 0 6.19.52 8.84 1.58 2.65 1.05 4.79 2.45 6.41 4.18l-2.67 3.24c-1.57-1.62-3.48-2.84-5.72-3.65-2.25-.81-4.59-1.22-7.02-1.22-1.47 0-2.82.15-4.06.45-1.25.3-2.34.77-3.29 1.42a7 7 0 0 0-2.23 2.48c-.54 1-.81 2.17-.81 3.52q0 1.71.57 2.76c.37.71 1 1.32 1.86 1.83.87.51 1.96.97 3.29 1.38q1.995.615 4.83 1.26c2.7.65 5.08 1.3 7.14 1.94 2.05.66 3.77 1.41 5.15 2.28 1.38.86 2.42 1.92 3.13 3.16.7 1.25 1.05 2.76 1.05 4.55 0 3.89-1.49 6.98-4.46 9.25-2.98 2.27-6.98 3.41-12.01 3.41" style="fill:#1d2167;fill-rule:nonzero"/></g></g></g><defs id="defs1283"><linearGradient id="_Linear1" x1="0" x2="1" y1="0" y2="0" gradientTransform="rotate(239.173 2491.708 -777.304)scale(309.303)" gradientUnits="userSpaceOnUse"><stop id="stop1266" offset="0" style="stop-color:#31369e;stop-opacity:1"/><stop id="stop1268" offset=".52" style="stop-color:#262a7a;stop-opacity:1"/><stop id="stop1270" offset="1" style="stop-color:black;stop-opacity:1"/></linearGradient><linearGradient id="_Linear2" x1="0" x2="1" y1="0" y2="0" gradientTransform="rotate(30.885 1197.32 8965.247)scale(187.0928)" gradientUnits="userSpaceOnUse"><stop id="stop1273" offset="0" style="stop-color:#31369e;stop-opacity:1"/><stop id="stop1275" offset="1" style="stop-color:#1d2167;stop-opacity:1"/></linearGradient><linearGradient id="_Linear3" x1="0" x2="1" y1="0" y2="0" gradientTransform="rotate(60.732 1645.602 4466.341)scale(156.537)" gradientUnits="userSpaceOnUse"><stop id="stop1278" offset="0" style="stop-color:#31369e;stop-opacity:1"/><stop id="stop1280" offset="1" style="stop-color:#1d2167;stop-opacity:1"/></linearGradient></defs></svg>