<svg xmlns="http://www.w3.org/2000/svg" width="1000" height="1000"><svg xmlns="http://www.w3.org/2000/svg" xmlns:svgjs="http://svgjs.com/svgjs" xmlns:xlink="http://www.w3.org/1999/xlink" width="26" height="26" transform="scale(38.46154)"><svg xmlns="http://www.w3.org/2000/svg" viewBox="0 0 26 26"><path d="M13 .188C5.926.188.188 5.926.188 13S5.926 25.813 13 25.813 25.813 20.074 25.813 13 20.074.188 13 .188M11.938 3.25a1.3 1.3 0 0 0-.25.75A1.3 1.3 0 0 0 13 5.313 1.3 1.3 0 0 0 14.313 4a1.3 1.3 0 0 0-.25-.75 9.83 9.83 0 0 1 8.687 8.688 1.3 1.3 0 0 0-.75-.25A1.3 1.3 0 0 0 20.688 13 1.3 1.3 0 0 0 22 14.313c.281 0 .535-.098.75-.25a9.83 9.83 0 0 1-8.687 8.687 1.3 1.3 0 0 0 .25-.75A1.3 1.3 0 0 0 13 20.688 1.3 1.3 0 0 0 11.688 22c0 .281.097.535.25.75a9.83 9.83 0 0 1-8.688-8.687c.215.152.469.25.75.25A1.3 1.3 0 0 0 5.313 13 1.3 1.3 0 0 0 4 11.688a1.3 1.3 0 0 0-.75.25 9.83 9.83 0 0 1 8.688-8.688m6.374 4.438-6.937 3.687-3.687 6.938 6.937-3.688ZM13 11.75c.695 0 1.25.555 1.25 1.25s-.555 1.25-1.25 1.25-1.25-.555-1.25-1.25.555-1.25 1.25-1.25"/></svg></svg></svg>