<svg xmlns="http://www.w3.org/2000/svg" width="1912.462" height="1602.44" style="max-height:500px" viewBox="37.175 227.15 1912.462 1602.44"><defs><linearGradient id="linear0" x1="642.036" x2="2247.53" y1="1285.33" y2="1374.08" gradientTransform="scale(.74973 .74982)" gradientUnits="userSpaceOnUse"><stop offset="0" style="stop-color:#66a2d5;stop-opacity:.34902"/><stop offset="1" style="stop-color:#9ae2d9;stop-opacity:.34902"/></linearGradient></defs><g id="surface1"><path d="M421.293 1562.48c232.676 277.32 704.144 264.766 1053.059-28.035 348.91-292.804 443.144-754.988 210.464-1032.308-232.671-277.324-704.144-264.77-1053.054 28.035-348.914 292.805-443.14 754.988-210.469 1032.308m0 0" style="stroke:none;fill-rule:nonzero;fill:url(#linear0)"/><path d="M1354.559 636.223c-61.907-5.203-125.633 15.613-172.532 56.328-10.996 9.57-21.289 20.465-26.949 33.91-11.105 26.402-2.234 56.402 4.887 84.129 26.254 102.113 23.219 221.574-47.805 299.457-21.957 24.023-55.277 43.82-85.933 32.82-6.532-2.34-12.258-5.3-17.215-8.797-20.324-14.215-28.285-37.125-30.235-62.656-2.308-29.75 3.524-63.101 7.438-90.41 1.012-7.258 1.918-14.106 2.472-20.32a1811 1811 0 0 0 1.926-22.563h.137c9.566-.172 18.578-4.68 26.262-10.371 24.367-17.988 37.398-47.875 39.25-78.363.515-8.317.203-16.625-.946-24.797a138 138 0 0 0-1.5-8.621 149 149 0 0 0-1.632-7.051c-.098-.367-.188-.727-.286-1.086-8.351-31.5-26.75-60.07-48.367-84.758-5.718-6.515-11.254-10.863-16.476-13.383a687 687 0 0 0-6.043-35.37c-11.418-57.376-25.95-90.446-57.828-123.516a270 270 0 0 0-7.918-7.907l-.27-.257a306 306 0 0 0-4.691-4.395q-.06-.05-.114-.101a70 70 0 0 0-1.101-1.004c0-.004-.008-.008-.008-.012-.367-.332-.742-.668-1.11-1.004-.074-.066-.152-.129-.218-.195l-.848-.758-.383-.34q-.322-.291-.652-.582-.233-.207-.473-.414-.47-.421-.941-.836c-.187-.168-.383-.336-.57-.504-.18-.152-.352-.3-.528-.457-.195-.164-.379-.332-.566-.496-.16-.133-.309-.266-.465-.398-.797-.692-1.605-1.383-2.414-2.079-.07-.058-.144-.117-.21-.175-.263-.223-.52-.446-.782-.668-.106-.09-.219-.18-.32-.27a920 920 0 0 0-2.567-2.156c-.082-.07-.172-.14-.254-.215q-.428-.35-.855-.707a4 4 0 0 0-.188-.152q-.426-.358-.863-.715a7 7 0 0 0-.305-.254q-.697-.582-1.418-1.164-.224-.187-.449-.367c-.242-.2-.48-.399-.726-.598-.137-.11-.278-.223-.414-.336-.254-.203-.5-.406-.758-.613a31 31 0 0 0-.645-.52c-.328-.265-.66-.531-.988-.797-.219-.175-.43-.347-.645-.52l-.675-.538a37 37 0 0 0-.579-.461c-.214-.172-.425-.344-.644-.516l-1.2-.953c-50.667-40.16-104.683-77.25-165.511-100.156-87.75-33.04-180.074-9.918-265.309 29.055l-.328.148c-.02.008-.039.02-.062.027a318 318 0 0 0-31.594 16.692c-42.809 25.875-79.402 62.09-102.273 106.406-28.426 55.004-33.977 122.68-9.22 179.43 12.712 29.191 32.544 54.304 53.356 78.64 7.82 9.149 15.782 18.164 23.567 27.274 40.226 46.937 77.379 98.586 94 158.164 12.047 43.304 11.488 91.629-5.305 132.703-1.785 3.25-3.773 6.285-6.043 9.113-4.258 5.344-9.43 9.778-15.82 12.918-14 6.883-30.973 5.45-45.496-.316-14.524-5.719-27.133-15.364-39.528-24.864a35223 35223 0 0 1-44.867-34.43c-18.402-14.105-47.418-35.093-66.101-21.37-56.25 41.418-119.875 103.054-156.012 169.195-28.528 52.277-39.88 107.383-16.832 157.531 23.222 50.461 65.262 90.137 111.285 121.254 15.676 10.617 32.23 20.527 50.594 25.281 18.332 4.786 38.828 3.88 54.96-6.078-2.652-11.535-11.824-19.586-21.527-26.93a688 688 0 0 1-4.375-7.796c.79.039 1.598.023 2.422-.059 4.266-.43 7.004-2.52 8.524-6.496 5.859-15.324-11.438-31.754-16.368-45.227-3.144-8.617-12.644-11.195-19.082-7.078-.484-2.03-.933-4.07-1.336-6.125-2.175-11.09-2.886-22.347-2.265-33.52a15.5 15.5 0 0 0 5.156 2.43c13.137 3.426 18.586-9.851 20.094-20.273 1.37-9.418 4.613-20.75 3.949-30.187-.531-7.649-5.254-12.817-11.14-14.497 5.738-10.48 12.726-20.28 20.808-29.093 2.2 8.55 12.121 15.613 20.703 12.297.82-.313 1.676-.442 2.488-.735 2.696-.957 4.61-2.308 6.805-3.844.113-.054.442-.226 1.024-.527.195-.105 1.113-.598 1.785-.973a146 146 0 0 0 4.136-1.875q.322-.159.48-.242.33-.144.74-.312c-.696.285 4.655-2.235 2.597-1.207-2.695 1.347 6.195-2.395 1.933-.864 8.305-2.976 12.13-12.207 8.965-19.382a42 42 0 0 1 6.969 3.14c7.055 3.989 13.668 8.938 19.738 14.262 8.328 7.305 15.93 15.379 23.703 23.273-11.601-.18-21.957 12.875-14.664 23.922 2.371 3.59 5.141 6.727 7.871 10.016-2.582-3.09 3.524 4.851 4.676 6.14 2.375 2.665 5.125 4.981 8.078 6.997 10.79 7.355 27.328 9.117 38.168 1.109 3.184-2.352 5.7-6.46 6.024-10.555 19.879 9.657 41.738 15.274 63.812 16.254-15.758 48.07-15.703 101.266.516 149.215 1.469 4.297 3.074 8.594 5.691 12.258 3.32 4.644 7.996 8.031 12.782 11.105.316.243.664.45.98.66 30.793 19.7 65.117 33.81 100.84 41.489 26.433 5.691 57.125 8.554 81.426 20.394 25.773 12.54 60.168 47.32 39.324 66.946-10.758 10.168-24.586 16.976-39.184 19.343-5.968.985-12.394 1.368-17.07 5.176-4.16 3.352-4.473 15.324-1.016 20.356-.941 1.68.528 4.05 2.028 5.52 17.492 17.179 45.601 24.69 69.691 20.109 14.566 1.664 28.926-4.829 39.371-15.305 16.852-10.527 31.399-24.676 41.438-41.77 14.332-24.422 18.847-54.965 9.851-81.812a77 77 0 0 0-3.691-9.024c5.363 1.524 9.304-3.27 9.922-8.007 1.488-11.621-4.649-20.516-11.953-29.153-6.649-7.87-14.688-17.183-24.125-21.625-7.942-3.742-18.489 1.735-19.41 9.637-8.481-6.465-17.274-12.754-25.817-19.195 2.836-1.817 4.988-5.203 4.734-8.48-.855-11.032-9.98-17.212-16.863-24.856-6.613-7.364-11.277-16.657-19.43-22.383-5.93-4.172-13.398-.375-16.046 5.488a77 77 0 0 1-3.715-8.742c-5.035-14.219-6.696-29.02-5.996-43.926 10.937-36.187 36.894-69.558 69.996-88.105 1.695 9.515 2.804 17.816 2.617 23.965-.442 13.87-2.106 27.941.75 41.527 2.855 13.578 11.433 27.039 24.746 30.973 10.047 2.964 20.184.03 29.18-5.676 26.55-11.403 55.062-54.813 76.52-96.29 3.702.95 7.398 1.942 11.089 2.946 30.61 19.082 68.309 30.352 89.031 61.441a70 70 0 0 1 3.051 5c-5.652 12.641-6.223 26.29-.812 39.297 2.355 5.668 6.113 12.434 11.015 17.23-.855 9.981-2.773 19.93-5.383 29.454q-.203.734-.406 1.457c-16.172 7.242-24.973 29.168-24.515 45.723.14 5.054.906 10.37 2.64 15.257-3.148 8.758-6.043 17.598-8.332 26.622-1.379 5.449-2.539 11.125-1.558 16.66 1.273 7.129 5.906 12.804 11.996 16.832 10.714 15.304 40.726 24.363 64.515 16.258 30.117-10.258 51.617-36.473 70.18-62.313 22-30.605 42.27-62.45 60.684-95.34 9.402-16.773 18.406-34.062 22.718-52.8 9.977-43.383-6.36-88.442-27.02-127.868-1.5-2.863-3.066-5.75-4.73-8.594 41.34-36.851 75.946-81.617 102.301-130.406 14.875-27.594 27.41-56.82 32.82-87.691 1.637-9.367 2.34-18.86 2.29-28.434.953-17.734-.489-36.695-.954-50.824a497 497 0 0 0-.922-18.04c7.758 2.65 17.223-.23 19.418-9.956 4.243-18.86 8.051-52.36-13.53-62.574-4.028-1.903-9.735-1.387-11.962 3.144a31 31 0 0 0-1.633 3.989c-2.218-14.083-4.695-28.141-7.25-42.18 10.137 2.242 21.875-3.262 20.782-16.133-1.649-19.453-2.465-47.96-16.653-63.52-1.558-3.824-3.55-7.054-6.207-8.539l-.906-.511c-3.57-1.992-7.234-2.227-10.547-1.145.098-3.887.434-7.77 1.086-11.617 1.32-7.805 3.914-15.3 7.285-22.465 4.942 5.902 14.653 8.055 20.719 1.442 4.855-5.293 10.195-10.325 15.332-15.387 6.445-6.356 14.492-12.324 13.563-22.57-.602-6.665-3.93-10.641-9.965-13.094a17 17 0 0 0-1.989-.668 183 183 0 0 1 19.95-16.254c2.574-1.817 5.289-4.094 7.664-6.606a107.4 107.4 0 0 1 20.21-.218c2.59-4.891 2.731-16.063 3.352-21.582 2.274-20.844-23.808-32.262-44.726-34.043m0 0" style="stroke:none;fill-rule:nonzero;fill:#e94c1d;fill-opacity:1"/><path d="M1162.07 1406.367c4.094 21.192 1.18 43.094-3.172 64.223a480 480 0 0 1-31.046 97.055c-9.47 21.43-20.817 42.574-37.875 58.636-17.047 16.063-40.696 26.5-63.864 23.035-6.07-.906-12.273-3.136-17.437-6.546 10.722 15.304 40.734 24.363 64.523 16.257 30.117-10.265 51.617-36.48 70.18-62.312 22-30.606 42.27-62.457 60.684-95.34 9.402-16.781 18.406-34.062 22.718-52.8 9.977-43.391-6.36-88.442-27.02-127.876-1.5-2.855-3.066-5.742-4.73-8.594-18.039 16.079-37.351 30.649-57.828 43.395 12.2 14.754 21.129 31.523 24.867 50.867m-300.433 39.207c-4.84 5.844-10.766 11.43-17.29 15.567 26.551-11.41 55.063-54.82 76.52-96.297-7.488-1.93-15.008-3.723-22.543-5.258-5.398 31.453-16.488 61.613-36.687 85.988m0 0" style="stroke:none;fill-rule:nonzero;fill:#c23918;fill-opacity:1"/><path d="M738.867 879.98c-5.113-16.535-23.629-9.847-34.976-4.828-8.903 3.942-17.555 7.512-26.391 10.63-1.746 9.148-7.121 17.238-13.867 23.644-7.102 6.738-16.672 6.11-23.309.36a25 25 0 0 1-2.222-.946c-1.602 8.922 2.058 19.039 10.09 23.605 2.894 1.64 6.351 2.563 10.343 2.45 9.367-.262 18.922-1.739 28.137-4.387 8.418-2.406 16.55-5.785 23.992-10.09 12.469-7.223 33.406-23.621 28.203-40.438m293.942-37.41c-5.637 8.563-16.02 11.309-24.532 6.825.782 1.98 1.95 3.757 3.532 5.054 5.195 4.274 10.578 5.906 16.015 5.864 7.422-.063 14.95-3.247 22.29-7.153a55 55 0 0 0 6.148-3.773 123.4 123.4 0 0 0-.946-24.797 138 138 0 0 0-1.5-8.613 147 147 0 0 0-1.632-7.059l-.293-1.086c-5.375 1.957-10.22 4.395-15.086 7.117 2.437 9.176 1.254 19.653-3.996 27.621m0 0" style="stroke:none;fill-rule:nonzero;fill:#0f1a12;fill-opacity:1"/><path d="M663.633 909.426c6.746-6.406 12.12-14.496 13.867-23.645a33.6 33.6 0 0 0 .598-5.695c.234-12.262-6.614-24.969-18.922-28.594-26.762-7.855-44.957 25.34-32.2 47.04 2.653 4.511 6.598 8.113 11.126 10.308a25 25 0 0 0 2.222.945c6.637 5.75 16.207 6.38 23.309-.36m369.176-66.855c5.25-7.968 6.433-18.445 3.996-27.62a30 30 0 0 0-.41-1.434c-3.602-11.563-13.922-23.239-26.938-23.239-10.039 0-18.723 8.137-18.969 18.168a20.4 20.4 0 0 0 .196 3.43c-1.387 4.355-1.32 9.043-.356 13.563 1.824 8.519 7.402 15.078 13.602 20.859a20.2 20.2 0 0 0 4.347 3.098c8.512 4.484 18.895 1.738 24.532-6.825m0 0" style="stroke:none;fill-rule:nonzero;fill:#fff;fill-opacity:1"/><path d="M420.168 502.45c.55 5.96 1.422 11.89 2.574 17.738a11 11 0 0 0-3.297 1.253c-6.605 3.817-10.87 7.012-13.23 14.707-2.094 6.832-2.184 14.098-.516 21.04 3.395 14.148 13.406 25.09 23.442 35.046 5.886 5.844 16.77 5.688 22.496-.03 11.785 19.214 26.23 36.91 42.55 52.8-1.57.07-3.097.316-4.503.75-4.02 1.238-8.579 4.746-9.239 9.238-2.586 17.719 14.496 31.078 27.368 40.719 12.44 9.312 36.468 26.863 51.898 15.926 5.176-3.668 7.648-8.219 8.277-13.086 45.278 24.304 95.14 39.238 145.844 49.207 11.211 18.812 31.602 25.558 51.856 31.508 18.937 5.554 49.136 17.32 65.195.254 9.379-9.965 8.332-22.36 1.304-31.336 9.868-2.34 19.864-5.036 30.172-7.825 14.61-3.988 29.254-9.027 41.266-18.214 3.793 1 7.879 1.12 11.484.347 12.364-2.648 23.438-9.902 31.813-19.27 14.258-15.956 33.601-60.41 2.824-70.683-2.676-.894-5.316-1.297-7.887-1.277.211-23.543-4.894-47.438-13.93-69.676-2.855-7.043-7.202-13.402-12.663-18.688l-.27-.257a306 306 0 0 0-4.691-4.395q-.06-.05-.114-.101c-.359-.332-.726-.668-1.093-1.004-.008-.004-.008-.008-.016-.008-.367-.336-.742-.672-1.11-1.008a4 4 0 0 1-.218-.195l-.848-.758-.383-.34q-.322-.291-.652-.582-.233-.207-.473-.414l-.941-.836c-.187-.168-.383-.336-.57-.5-.18-.152-.352-.305-.528-.457a37 37 0 0 1-.566-.5c-.16-.133-.309-.266-.465-.398-.797-.692-1.605-1.383-2.414-2.079-.07-.058-.144-.117-.21-.175-.263-.223-.52-.446-.782-.664-.106-.094-.219-.184-.32-.274a920 920 0 0 0-2.567-2.156c-.082-.07-.172-.14-.254-.211l-.855-.711a4 4 0 0 0-.188-.152q-.426-.358-.863-.715c-.098-.086-.2-.168-.305-.254q-.697-.582-1.418-1.164-.224-.187-.449-.367c-.242-.2-.48-.399-.726-.598-.137-.11-.278-.223-.414-.336-.254-.203-.5-.406-.758-.613a31 31 0 0 0-.645-.52c-.328-.265-.66-.531-.988-.797-.211-.175-.43-.347-.645-.52l-.675-.538a37 37 0 0 0-.579-.461 30 30 0 0 0-.644-.516l-1.2-.953c-50.667-40.16-104.683-77.25-165.511-100.156-87.75-33.035-180.074-9.918-265.309 29.055l-.328.148q-.029.016-.062.031c-21.903 10.04-35.274 33-33.051 57m0 0" style="stroke:none;fill-rule:nonzero;fill:#ec6640;fill-opacity:1"/><path d="M434.965 638.055c1.086.843 2.183 1.898 3.39 2.57 1.176.492 2.344.988 3.516 1.484l.137.055.375.09c.707.152 3.285.527 4.012.535h.312c.734-.012 3.254-.375 3.969-.527l.379-.086q1.694-.715 3.394-1.43a10.76 10.76 0 0 0 3.985-3.66 7.1 7.1 0 0 0 1.828-3.137c.89-1.695 1.3-3.52 1.222-5.476-.164-1.258-.336-2.52-.507-3.778l-1.43-3.394a10.8 10.8 0 0 0-2.824-3.395c-1.88-2.27-4.38-4.008-7.309-4.676-1.316-.175-2.633-.355-3.95-.53q-4.02.01-7.495 2.027-2.596 1.4-4.168 3.828-1.97 2.15-2.656 5.05a14.9 14.9 0 0 0 0 7.899 14.8 14.8 0 0 0 3.82 6.55M574.328 741.16q1.612 2.49 4.274 3.926l.191.113c4.605 2.676 10.387 2.676 14.996 0l.191-.113 3.082-2.383a11.5 11.5 0 0 0 2.442-3.195q1.677-2.636 1.812-5.688.687-3.053-.273-6.105l-1.54-3.656a15.4 15.4 0 0 0-5.491-5.489l-.196-.101a11.4 11.4 0 0 0-1.828-.782q-2.647-1.389-5.699-1.273l-3.93.527a22.6 22.6 0 0 0-3.597 1.524l-.192.105q-2.679 1.44-4.293 3.942-2.033 2.214-2.742 5.203c-.18 1.355-.363 2.715-.547 4.07a15.3 15.3 0 0 0 2.09 7.723 5.9 5.9 0 0 0 1.25 1.652m282.137 31.707.847.758a17.86 17.86 0 0 0 7.903 4.605c2.383.75 4.762.852 7.144.32 2.383-.112 4.602-.816 6.657-2.128 2.691-1.59 4.828-3.735 6.425-6.426.137-.324.286-.613.473-.922 2.363-3.996 3.336-9.965 1.89-14.449a23 23 0 0 0-.726-1.941l-.07-.512c-.547-2.3-1.602-4.309-3.164-6.016-2.262-2.926-5.489-5.5-9.2-6.343a21.1 21.1 0 0 0-9.398 0c-4.215.96-8.445 4.46-10.582 8.132a25 25 0 0 0-1.152 2.235 15 15 0 0 0-.93 2.203c-1.172 2.234-1.71 4.64-1.613 7.226.226 4.98 1.906 9.668 5.496 13.258m0 0" style="stroke:none;fill-rule:nonzero;fill:#ec6640;fill-opacity:1"/><path d="M956.781 918.395c-7.687-11.317-11.113-24.934-13.55-38.387a278 278 0 0 1-3.215-23.395c-3.125-33.566-.055-66.101 4.46-99.804-17.714 25.918-13.292 94.78-15.39 116.39-1.777 18.543-3.563 37.371-.176 55.707 3.39 18.293 12.746 36.352 28.633 46.059 8.45 5.168 18.894 7.297 28.672 6.047 1.012-7.266 1.918-14.114 2.472-20.328.684-7.516 1.329-15.028 1.926-22.555-13.597.207-26.215-8.496-33.832-19.734m-726.574 540.062c-3.18-34.469-6.043-70.926 8.938-102.11 8.347-17.359 21.648-31.777 35.195-45.402 11.422-11.449 23.644-22.87 38.762-28.597 33.554-12.746 70.218 5.449 101.503 23.117l101.301 57.238c1.813 1.043 3.84 2.371 4.086 4.473l-.039.762c10.336-9.215 22.07-17.07 32.617-26.047 15.989-13.625 30.34-32.551 28.563-53.461-.946-11.325-8.766-23.336-20.113-23.785-4.922-.18-9.641 1.812-14.286 3.457-3.511 1.234-6.984 2.644-10.422 4.039a28.3 28.3 0 0 0 1.754-4.395c1.204-3.957-1.437-8.742-5.507-9.691-8.852-2.07-20.387 2.61-24.22 11.132-.663-.44-1.3-.968-1.894-1.582-4.535-4.703-13.222 1.575-9.265 7.145a27 27 0 0 0 3.422 3.953 30 30 0 0 1-4.985-1.77 948 948 0 0 0-5.734-2.578 8.3 8.3 0 0 0-1.617-1.671c-7.356-5.79-15.454-10.493-24.371-13.52-2.512-.848-10.434-2.047-12.442-3.816-3.281-2.895-2.488-8.243-4.508-11.887-8.355-15.078-27.566-11.848-39.367-3.215a6.6 6.6 0 0 0-2.035 2.399 737 737 0 0 0-14.418-4.32c.594-3.477-.875-7.391-4.14-9.868-9.434-7.129-26.118-14.367-37.215-7.078-4.325-2.91-11.004.074-11.579 4.543-5.613.09-10.757 1.465-14.855 5.055-13.316.726-25.746 4.722-37.258 10.941 1.281-4.5 1.602-9.383.848-14.398-1.164-7.754-10.723-7.774-15.488-4.094-5.137 3.972-10.344 10.87-10.426 17.672-6.461 3.082-7.649 13.797-2.469 19.12.312.325.668.626 1.055.903-11.606 10.633-21.93 23.094-30.926 35.719l-.395.555c-2.523-1.993-5.976-1.61-8.695.511-.789.614-1.441 1.364-2 2.203-5.477 1.45-10.133 5.032-13.078 10.118-3.531 6.101-4.238 15.484.754 21.039-7.422 10.87-15.074 21.52-23.555 31.312-3.523-5.219-10.363-7.68-16.621-3.726-3.809 2.406-6.27 6.988-8.91 10.55-2.938 3.957-5.586 8.5-4.172 13.645.535 1.95 1.5 3.48 2.727 4.621q-.662.48-1.34.95c-8.168 5.73-17.703 10.581-27.653 9.777-.062-.004-.12-.012-.18-.012a9 9 0 0 0-.105-.7c-1.36-7.117-9.12-19.98-17.91-19.245q-.084-.452-.144-.903c-.586-4.289-6.204-4.762-8.887-2.219-3.555-8.14-5.559-17.394-6.156-25.98-1.961-28.387 2.933-56.918 7.945-85.309.402 1.02 1.035 1.957 1.824 2.895 1.7 2.02 4.555 2.273 6.942 1.832 2.003-.367 3.925-1.957 4.898-3.707.469-.832.754-1.7.867-2.578 1.676-1.133 2.86-3.215 2.777-5.157a7.3 7.3 0 0 0-.84-3.097c-.613-1.164-2.316-2.64-3.667-2.828-1.817-.246-3.336-.399-5.137.136-1.52.45-2.633 1.137-3.813 2.024-.902.703-1.703 1.394-2.406 2.265l.14-.804c-28.527 52.277-39.874 107.383-16.831 157.531 23.222 50.461 65.265 90.133 111.285 121.254 15.68 10.617 32.23 20.527 50.598 25.281 18.332 4.785 38.828 3.88 54.96-6.082-2.656-11.531-11.824-19.582-21.527-26.926-3.195-2.414-6.453-4.757-9.55-7.12-19.454-14.81-38.38-36.114-40.61-60.489m0 0" style="stroke:none;fill-rule:nonzero;fill:#ce3b17;fill-opacity:1"/><path d="M1332.441 1065.582c-.554-100.477-84.636-210.871-52.57-299.344-9.531 6.555-17.434 16.004-22.937 26.606a24 24 0 0 0-.727-.692 4.5 4.5 0 0 0-1.168-.77c2.352-4.808 5.711-9.226 9.941-12.98 4.961-4.402-1.44-12.468-7.035-9.109-19.43 11.652-26.86 36.2-18.402 57.098 1.422 3.507 4.543 5.636 7.797 5.433-.66 20.621 4.406 40.207 7.113 61.457 1.297 10.121 1.95 20.516 2.195 30.996-1.77-1.941-4.648-2.765-7-1.394a28 28 0 0 0-3.945-1.313c-5.3-1.332-9.324 4.254-6.883 8.946 1.051 2.02 2.258 3.922 3.496 5.804-5.375 16.032-3.3 33.496 5.676 48.559 1.594 2.668 4.422 3.973 7.203 3.89-1.004 24.192-3.11 48.485-7.023 72.41-1.89-5.343-9.223-7.046-13.692-3.019-14.851 13.352-16.203 34.926-9.062 52.637a199 199 0 0 1-3.742 11.734c-2.192 6.223 4.242 9.567 9.078 7.723a324 324 0 0 1-8.531 21.496c-2.356-4.129-8.352-6.14-12.485-3.367-3.433 2.312-5.98 4.297-8.343 7.68-.782 1.109-1.11 2.414-1.086 3.726-4.305 6.965-7.133 14.54-8.246 22.871-.723 5.383.457 11.735 4.316 15.332-12.305 17.352-27.035 32.856-44.367 44.719 1.129-5.637-3.489-10.563-9.387-11.254-11.008-1.289-21.855 2.684-30.098 9.95-4.273 3.773-8.148 9.1-9.894 14.816-3.328.863-5.203 4.441-4.926 7.941-14.27 2.008-28.82 1.469-42.547-1.941 3.93-3.09 4.738-9.098.906-13.063-6.363-6.598-14.828-12.125-24.382-10.918a18.6 18.6 0 0 0-3.258.719c-3.617-2.152-8.977-.711-9.02 4.914-.008.207 0 .418.004.629-6.582-5.52-12.203-12.176-16.71-19.547 2.206-.805 4.1-2.648 5.097-5.113 4.914-12.285 2.867-26.18-5.875-36.242a28 28 0 0 0-2.7-2.72c-.906-3.523-5.472-5.737-8.878-4.558.812-12.082 4.59-23.785 11.824-33.804 2.023-2.825 4.332-5.66 6.844-8.45-20.324-14.215-28.285-37.125-30.242-62.656-14.06 31.606-36.864 60.977-69.239 67.59 1.176-3.766 1.078-7.852-.879-11.531-5.035-9.516-18.953-11.52-27.859-6.532-4.234 2.368-7.293 6.657-8.395 11.188-1.757.809-3.156 2.445-3.628 4.242a175 175 0 0 1-11.72-3.734c-11.39-4.047-18.398-9.785-25.566-15.692.399-2.672.051-5.562-.922-8.25.06-4.73-2.34-9.379-6.246-12.5-5.847-4.683-17.117-8.449-24.132-4.218a15 15 0 0 0-1.11.742c-2.191-1.59-5.015-1.305-6.93.05-13.066-8.374-24.734-18.933-34.515-31.027 2.316-1.183 4.004-3.441 3.77-6.37-1.126-13.903-10.758-29.536-24.915-33.009a8 8 0 0 0-1.808-.226c-4.004-10.348-6.801-21.16-8.219-32.188a144 144 0 0 1-.375-3.18c-14.355 4.184-29.727 5.415-44.457 3.524-20.812-2.684-41.172-10.895-56.883-24.828-17.078-15.153-27.933-36.281-34.289-58.215-1.242-4.305-2.351-9.02-3.297-14.027-14.351-8.496-26.539-20.938-36.129-34.72-13.793-19.878-22.8-42.534-31.703-64.991-8.52-21.477-17.039-42.922-25.562-64.395-9.602-24.203-20.04-49.59-40.504-65.726-31.633-24.899-83.63-17.32-106.813 15.578-14.246 20.218-17.53 46.687-13.547 71.097 4.012 24.414 14.7 47.215 26.43 69.004a794 794 0 0 0 4.156 7.543c7.825 9.157 15.782 18.164 23.57 27.282 40.223 46.93 77.38 98.578 94 158.156 12.048 43.304 11.489 91.636-5.308 132.703-1.781 3.25-3.77 6.285-6.043 9.113 8.73.664 18.16-1.015 26.504-3.562 6.445-1.957 13.063-4.246 19.7-5.953-.723 3.117 1.507 7.168 5.292 5.796.516-.187 1.04-.39 1.574-.593 1.442 7.527 8.133 13.773 17.125 12.625 7.926-1.004 12.891-7.7 13.426-14.785 10.598 6.66 17.864 18.34 24.38 29.386 4.671 7.91 8.624 14.926 12.644 21.578-4.676-.605-9.88 3.598-9.473 8.489.637 7.691 3.309 17.277 9.238 23.011 5.551 8.684 16.188 14.555 26.29 15.418 3.292.278 5.495-1.75 6.534-4.359a253 253 0 0 1 26.141 40.102c1.512 2.878 2.977 5.82 4.25 8.832a7 7 0 0 0-.887.66 31.4 31.4 0 0 0-5.964 6.824c-5.872 8.066-10.418 21.371-2.762 29.242a36.7 36.7 0 0 0 5.754 10.176q.357.438.75.793c-.114.316-.227.64-.34.953-6.652 18.973-6.996 36.785-6.496 54.918a15 15 0 0 0-2.375-.43c-7.664-.77-14.336 5.453-16.524 12.434-1.172 3.758-1 7.324-.398 11.148.695 4.395.668 9.098 1.719 13.371 1.183 4.805 7.734 6.532 11.136 2.938a2 2 0 0 0 .168-.188c1.211 2.868 2.907 5.528 5.075 7.778q.44.46.945.816a153 153 0 0 1-.442 3.871 58184 58184 0 0 0-5.21 40.871c-1.829-.507-3.875-.222-5.47 1.29a39.5 39.5 0 0 0-6.96 8.84c-10.797 5.573-11.113 19.847-6.43 30.382 1.051 2.371 3.582 2.594 5.551 1.621 1.785 2.227 4.191 3.832 6.96 4.469-1.296 5.7-3.32 11.129-6.98 15.61-6.007 7.37-15.398 10.898-24.41 13.902a547 547 0 0 1-16.691 5.226c-.55-4.59-3.942-9.043-8.715-11.246-4.914-2.281-10.121-3.605-15.535-3.906-1.879-.106-3.793-.031-5.633.367-2.226-1.2-5.2-.914-7.137 1.988-5.64 8.457-1.566 16.262 5.68 21.055-9.86 2.246-20.207 3.988-29.937 1.984.312.243.66.45.976.66 30.797 19.7 65.121 33.81 100.844 41.489 26.43 5.691 57.125 8.554 81.426 20.394 25.773 12.54 60.16 47.32 39.32 66.946-10.754 10.168-24.582 16.976-39.18 19.351-5.972.977-12.394 1.36-17.074 5.168-4.156 3.352-4.469 15.332-1.012 20.356-.941 1.68.524 4.058 2.024 5.52 17.496 17.179 45.601 24.69 69.695 20.116 14.566 1.657 28.926-4.836 39.371-15.312a58 58 0 0 0 9.723-12.91c9.707-17.532 10.894-38.653 8.066-58.492-4.715-33.211-2.722-57.102-27.543-79.657-20.222-18.406-40.718-37.054-55.699-59.926-14.98-22.835-24.164-50.777-19.309-77.703a135 135 0 0 1 3.66-15.16c10.938-36.187 36.887-69.554 69.997-88.105 10.105-5.66 20.886-9.942 32.11-12.496 26.136-5.953 52.73-3.676 79.16 1.73 7.527 1.543 15.046 3.336 22.542 5.266 3.703.949 7.399 1.941 11.09 2.945 9.04 2.465 18.031 5.04 26.945 7.52 45.746 12.671 92.465 23.148 135.551 3.277 14.746-6.809 29.008-14.54 42.75-23.094 20.477-12.738 39.79-27.308 57.828-43.387 41.34-36.851 75.946-81.617 102.301-130.406 14.875-27.586 27.41-56.812 32.82-87.691 1.637-9.367 2.34-18.852 2.29-28.426m0 0" style="stroke:none;fill-rule:nonzero;fill:#ce3b17;fill-opacity:1"/><path d="M794.102 1071.82c-.301-1.28-1.036-2.43-1.98-3.328.03.024.062.043.093.067a10 10 0 0 0-.504-.426c-.008-.016-.024-.024-.04-.04-.726-.593-1.476-1.058-2.359-1.378a9 9 0 0 0-.39-.277 5.6 5.6 0 0 0-2.559-1.344 7.54 7.54 0 0 0-3.996 0c-.68.203-1.504.539-2.137.902a12 12 0 0 0-1.707 1.316l-.152.137c-1.558 1.598-2.383 3.742-2.457 5.953-.031.871.14 1.817.316 2.625.329 1.535 1.301 3.403 2.473 4.485.594.554 1.313 1.152 2.04 1.55.554.301 1.476.692 2.085.887l.367.09 2.172.293a6.2 6.2 0 0 0 3.164-.707 4.05 4.05 0 0 0 1.809-1.059 7 7 0 0 0 .644-.468c.368-.282.727-.578 1.07-.918.798-.793 1.344-1.688 1.77-2.7.39-.93.653-1.933.653-2.953a9 9 0 0 0-.125-1.351c-.055-.465-.145-.93-.25-1.356m58.515 17.239c-24.719 0-24.754 38.414 0 38.414 24.715 0 24.758-38.414 0-38.414m66.43 35.211c2.562.707 5.824.046 7.637-2.024q1.441-1.629 2.879-3.27c1.664-1.89 2.28-4.32 1.269-6.703-.422-1.011-1.027-1.785-1.89-2.46-1.005-.77-2.407-1.422-3.72-1.32l-4.093.339c-2.824.238-5.293 1.348-6.785 3.89-1.274 2.184-1.356 4.712-.39 6.997.937 2.226 2.714 3.898 5.093 4.55m-169.863-122.421a6.52 6.52 0 0 0-5.59 3.21c-1.235 2.106-1.04 4.407 0 6.528.695 1.426 1.277 2.86 2.43 3.992 1.726 1.7 4.585 1.707 6.32 0 1.152-1.14 1.73-2.566 2.426-3.992 1.035-2.121 1.238-4.422 0-6.527a6.51 6.51 0 0 0-5.586-3.211m204.812 91.117c8.758 0 8.774-13.61 0-13.61-8.754 0-8.77 13.61 0 13.61M628.898 1283.98c1.961 1.41 4.336 2.13 6.633 1.711 1.555-.015 3.043-.39 4.274-1.648 1.226-1.262 1.48-2.68 1.386-4.172.082-.703.055-1.406-.023-2.137-.043-.582 0-1.152-.008-1.738-.039-2.062-.984-3.695-1.816-5.488-.727-1.559-2.41-2.715-3.918-3.352-1.625-.691-3.606-.976-5.332-.414a9.8 9.8 0 0 0-3.617 2.11c-1.641 1.503-2.2 3.671-2.395 5.789a9.6 9.6 0 0 0 .7 4.656c.921 2.172 2.277 3.351 4.116 4.683m8.688 62.493a5.6 5.6 0 0 0-2.945-.137 3.67 3.67 0 0 0-1.864.512c-.914.293-1.71.8-2.379 1.52q-.572.754-1.152 1.491c-.246.594-.496 1.18-.742 1.77a5.55 5.55 0 0 0-.133 2.941c.043.989.336 1.895.875 2.743l.668 1.058c1.406 2.227 3.883 3.922 6.617 3.793 2.032-.09 3.953-.777 5.422-2.242a5.74 5.74 0 0 0 1.586-2.465c.477-.914.7-1.898.66-2.953 0-2.777-1.492-5.16-3.797-6.621-.351-.227-.703-.446-1.054-.668-.586-.25-1.176-.496-1.762-.742m-60.723-166.333c-2.379-1.148-4.754-1.62-7.375-.894-1.578.438-2.605 1.149-3.726 2.031-.516.375-1.02.774-1.496 1.203-1.551 1.364-2.653 4.137-2.567 6.176.074 1.574.453 3.219 1.27 4.59.488 1.094.765 1.387 1.812 2.715q.825.64 1.66 1.281a6.1 6.1 0 0 0 3.043.977c1.746.23 3.7.008 5.227-.977a9.8 9.8 0 0 0 2.937-2.937 6.5 6.5 0 0 0 .891-2.235c.883-.894 1.594-1.996 1.871-3.218a9.2 9.2 0 0 0 0-4.102c-.387-1.695-1.957-3.84-3.547-4.61m-76.871-26.769c-.777-.734-1.707-1.312-2.765-1.55-1.88-.43-3.465-.106-5.207.679-4.102 1.852-5.407 7.027-4.387 11.055 1.168 4.61 6.508 7.812 11.105 6.386 3.942-1.222 6.508-4.933 6.297-9.05-.164-3.215-2.086-6.395-5.043-7.52m-6.969 7.754.043.05c.012.255-.007.368-.043-.05m-.039-1.254q.005-.135.016-.246c.04-.105.082-.219.137-.344Zm128.325 299.367c-.602.606-1.188 1.282-1.586 2.032l-.114.23c-.652 1.32-1.152 2.77-1.12 4.27a8.06 8.06 0 0 0 1.113 4.105 6.16 6.16 0 0 0 2.097 2.29 6.1 6.1 0 0 0 2.77 1.452c1.445.39 2.886.39 4.332 0l.148-.043q.034.002.063-.008.344.026.683.016c.707-.098 1.418-.195 2.125-.285a6.05 6.05 0 0 0 2.723-1.434c1.32-1.027 2.484-2.48 2.867-4.16.094-.707.192-1.418.285-2.121a8 8 0 0 0-1.093-4.043l-.168-.285c-.27-.414-.993-1.379-1.344-1.73l-.238-.211c-.493-.422-1.196-1.028-1.754-1.352-.383-.215-.825-.367-1.211-.531-.309-.13-.832-.39-1.235-.504l-.261-.051c-.727-.145-1.664-.3-2.407-.316l-.265.007c-.625.024-1.828.16-2.43.325-.562.164-1.633.605-2.133.906a11.4 11.4 0 0 0-1.847 1.441m-21.539 64.235c-1.594.406-2.934 1.222-4.067 2.297a8.6 8.6 0 0 0-2.351 2.601 6.4 6.4 0 0 0-1.024 3.2 6.53 6.53 0 0 0 .152 3.44 8.6 8.6 0 0 0 1.856 3.415c.297.418.629.832.957 1.144.64.64 1.426 1.285 2.215 1.703 1.59.848 3.242 1.18 5.031.938 1.66-.223 3.371-.899 4.535-2.172a9.4 9.4 0 0 0 2.031-3.48c.278-.856.34-1.754.25-2.649a7 7 0 0 0 .063-1.191 13 13 0 0 0-.145-1.364c.028-.195.051-.382.079-.578 0-1.687-.61-3.27-1.63-4.59-1.859-2.414-4.968-3.472-7.952-2.714m409.304-305.844-.164.383c-.676 1.566-1.097 2.289-1.105 4.05 0 1.118.195 1.887.511 2.833.246.593.496 1.18.743 1.77a5.55 5.55 0 0 0 1.902 2.07 3.7 3.7 0 0 0 1.637.953 5.5 5.5 0 0 0 2.847.636c.653-.09 1.313-.172 1.965-.262.594-.246 1.176-.496 1.762-.742a5.65 5.65 0 0 0 2.078-1.906 5.6 5.6 0 0 0 1.324-2.52c.317-.937.512-1.73.504-2.832 0-1.8-.383-2.394-1.07-3.988l-.188-.445a7.5 7.5 0 0 0-2.648-2.645 7.33 7.33 0 0 0-3.727-1.004c-1.332 0-2.57.336-3.726 1.004a7.4 7.4 0 0 0-2.645 2.645m62.078 40.836c-.015.015-.023.039-.039.058 1.274.461 2.551.504 3.824.383 1.118.04 2.235 0 3.313-.375.234-.02.457-.043.691-.066 2.188-.223 4.395-.766 5.961-2.473 1.282-1.387 2.067-2.957 2.317-4.836.238-1.8.015-3.812-.996-5.379-1.118-1.73-2.918-3.539-5.04-3.875-3.261-.52-6.855-1.629-10.07-.668-4.289 1.274-7.008 5.399-6.418 9.836.496 3.676 3.067 6.422 6.457 7.395m86.286-39.469c.472.074.878.133 1.261.18 2.692.547 5.688.293 8.02-1.246 1.972-1.305 3.726-3.215 4.265-5.602a10 10 0 0 0 .16-3.621c1.02-2.258 1.176-4.102.833-6.582-.204-1.41-1.727-3.18-2.942-3.824-1.574-.824-3.176-1.02-4.926-.645 2.446-.52.528-.12-.312-.129-.66 0-1.328.059-1.996.157-3.45-.106-6.723 1.68-8.883 4.468-2.324 3.016-3 6.336-2.234 10.086.605 2.985 3.695 6.239 6.754 6.758m77.664-206.766c-.165.094-.32.176-.493.274-4.214 2.316-5.937 8.473-3.293 12.566 2.774 4.305 8.04 5.743 12.567 3.297.75-.402 1.387-.875 2.07-1.41 1.266-.973 2.137-2.098 2.75-3.566.106-.25.195-.496.277-.735.524-.894.93-1.89 1.176-2.926 1.532-3.343.348-7.468-2.527-9.687-1.379-1.066-3.149-1.828-4.93-1.746-2.258.098-4.035.922-5.758 2.383zm8.308-1.136a8 8 0 0 0-.52.074q-.04-.002-.093.008c.2-.031.41-.063.613-.082m-11.66-117.02c-.164 2.895 1.09 6.137 3.262 8.07 2.199 1.965 4.828 2.82 7.746 2.43 2.097-.285 4.02-1.117 5.531-2.672 1.68-1.715 2.566-4.054 2.649-6.433.09-2.45-.915-4.559-2.586-6.012a1.3 1.3 0 0 1-.075-.195c-1.465-3.45-5.617-5.887-9.386-4.602-2.313.785-4.371 2.121-5.641 4.281-.965 1.649-1.387 3.23-1.5 5.133m6.113-3.754-.008.008zm16.492-150.84q-.19.515-.164 1.082a3.4 3.4 0 0 0-.129 1.125c-.035 1.036.172 1.997.645 2.895q.451 1.394 1.555 2.414c.508.39 1.011.781 1.52 1.172a7.45 7.45 0 0 0 3.784 1.027l.114.004 2.027-.273c.402-.125.832-.332 1.191-.485a3.9 3.9 0 0 0 1.715-1l.848-.66.309-.254c.375-.304.757-.617 1.132-.922a6.05 6.05 0 0 0 1.641-2.562 6 6 0 0 0 .684-3.063 6 6 0 0 0-.684-3.062 6 6 0 0 0-1.64-2.559c-1.516-1.39-3.512-2.425-5.626-2.328l-2.113.282a7.9 7.9 0 0 0-3.508 2.046q-.461.556-.93 1.125l-.203.25c-.421.516-.984 1.121-1.32 1.696a125 125 0 0 1-.781 1.855Zm31.445-12.554c9.56 0 9.583-14.856 0-14.856-9.55 0-9.566 14.856 0 14.856m-36.866-13.536c7.964 0 7.98-12.37 0-12.37-7.961 0-7.97 12.37 0 12.37M112.895 1349.672c-1.38-1.266-3.192-2.203-5.118-2.121-.64.09-1.28.172-1.922.262a7.2 7.2 0 0 0-3.195 1.859c-.574.457-1.148.918-1.722 1.367l-.864.688c-1.129 1.007-1.644 2.43-2.156 3.796-.906 2.415.164 5.473 1.91 7.22 1.742 1.737 4.797 2.812 7.215 1.905 1.363-.511 2.789-1.027 3.793-2.16l.687-.863 1.368-1.723a5.44 5.44 0 0 0 1.5-2.324q.68-1.294.62-2.793c.005-1.773-.788-3.89-2.116-5.113m24.289 19.121a5 5 0 0 0-.383-.93 5.43 5.43 0 0 0-1.492-2.316q-.728-.562-1.461-1.125a9.3 9.3 0 0 0-1.786-.75c-1.667-.457-2.367-.262-4.023-.016l-.715.114-.355.054c-.48.074-.606.192-1.235.457a6.24 6.24 0 0 0-2.683 1.723 3.1 3.1 0 0 0-.758.937 6.3 6.3 0 0 0-1.492 2.844l-.086.215a8.36 8.36 0 0 0 0 4.387 8.2 8.2 0 0 0 2.12 3.629 8.1 8.1 0 0 0 3.638 2.12q2.186.587 4.379 0l.222-.081c.664-.278 1.332-.563 1.996-.84a6 6 0 0 0 1.782-1.41c.433-.563.867-1.13 1.304-1.692.676-1.05.781-1.613.93-2.582l.105-.71q.467-1.485.137-2.97a16 16 0 0 0-.144-1.058m44.074-43.316c-1.953 1.027-3.543 2.511-4.875 4.222-3.774 3.621-4.09 9.446-1.528 13.848 1.766 3.031 5.266 4.621 8.684 4.16 1.57-.207 2.871-.75 4.125-1.715 1.274-.984 2.012-2.054 2.64-3.398-.093.21-.183.43-.273.644.746-1.566 1.207-2.742 1.489-4.183l-.083.601c.047-.34.102-.668.153-.996a10 10 0 0 0 .05-.332c2.79-2.863 2.755-7.64.387-10.7-2.593-3.358-7.047-4.124-10.77-2.151m64.481-67.422c-1.734-4.118-5.922-5.887-10.203-5.012-5.226 1.066-9.605 4.922-10.492 10.145-.89 3.195.332 6.773 2.582 9.082 3.531 3.636 9.133 5.16 13.656 2.316 3.227-2.024 4.883-5.676 4.23-9.281 1.087-2.227 1.212-4.914.227-7.25m73.348-47.789c-.035-.957-.277-1.91-.793-2.758a9 9 0 0 0-.484-.7 9.1 9.1 0 0 0-3.059-2.968 6.6 6.6 0 0 0-3.336-1.063 6.75 6.75 0 0 0-3.574.157 9 9 0 0 0-3.957 2.308c-.938.75-1.664 1.785-2.266 2.813-1.12 1.918-1.39 3.593-1.562 5.773-.2 2.48 1.152 4.934 2.773 6.703a9.44 9.44 0 0 0 4.188 2.438 7.2 7.2 0 0 0 3.777.172 7.07 7.07 0 0 0 3.523-1.125 7.16 7.16 0 0 0 2.66-2.446 7.1 7.1 0 0 0 1.696-3.222 9.6 9.6 0 0 0 .324-3.035c.176-1 .234-2.04.09-3.047m62.594-12.348a8.05 8.05 0 0 0-2.086-3.586 8.17 8.17 0 0 0-3.586-2.09 7.9 7.9 0 0 0-2.762-.262c-.117-.007-.238 0-.36 0-.804.11-1.609.215-2.413.329-.778.234-1.516.546-2.223.945l-.633.351c-2.75 1.516-4.746 4.852-4.605 8.016.113.824.222 1.649.336 2.477a9.23 9.23 0 0 0 2.386 4.093 6.87 6.87 0 0 0 2.989 1.918c1.109.586 2.3.856 3.578.801 3.21 0 6.453-1.754 8.023-4.594l.352-.636c.203-.364.363-.743.488-1.14a6.86 6.86 0 0 0 .781-3.497l-.015-.117a8.1 8.1 0 0 0-.25-3.008m88.691 35.652c-5.398-3.02-13.058-4.175-18.453-.48-5.531 3.781-4.961 12.515 1.89 14.504 1.305.375 2.598.636 3.84.898 3.149 5.48 8.926 8.52 15.543 9.082 5.157.426 9.48-5.594 7.883-10.355-1.957-5.828-5.203-10.567-10.703-13.649m-55.637-26.332c-1.316-.996-2.925-1.703-4.597-1.597-3.317.203-5.836 1.746-7.68 4.468-2.469 3.653-1.844 8.79 1.254 11.871 2.121 2.106 5.105 3.41 8.129 3.313 2.715-.09 5.05-.98 7.418-2.242 1.75-.946 3.449-3.125 3.894-5.067.434-1.898.332-3.726-.425-5.52-1.344-3.179-4.579-5.316-7.993-5.226m146.797 42.59a8.6 8.6 0 0 0-.613-1.281q-.662-.865-1.324-1.719a8.5 8.5 0 0 0-3.742-2.183 6.43 6.43 0 0 0-3.383-.149 6.25 6.25 0 0 0-3.149 1.004 6.4 6.4 0 0 0-2.379 2.184 6.34 6.34 0 0 0-1.515 2.886q-.609 2.249 0 4.504c.238.649.582 1.606.93 2.207.199.344.593.785.765 1.004.363.473.469.676.79.988.57.438 1.136.88 1.702 1.313l.153.105c.96.61 2 .946 3.117.993a6.3 6.3 0 0 0 3.344-.153c.668-.277 1.34-.562 2.003-.84a6.4 6.4 0 0 0 2.352-2.16 4.2 4.2 0 0 0 1.082-1.851 6.34 6.34 0 0 0 .719-3.23c-.059-1.282-.332-2.505-.852-3.622m-440.004 59.406c-.101-.765-.203-1.535-.308-2.3-.293-.692-.582-1.38-.875-2.07a6.5 6.5 0 0 0-2.23-2.43 4.35 4.35 0 0 0-1.91-1.118 6.57 6.57 0 0 0-3.337-.742h-.656c-4.316-.015-8.027 3.676-8.008 8.008v.652q.157 1.16.309 2.305.439 1.034.87 2.066a6.47 6.47 0 0 0 2.235 2.43q.81.813 1.91 1.117a4.3 4.3 0 0 0 2.188.594 4.4 4.4 0 0 0 2.3 0c.786 0 1.512-.203 2.188-.594a6.5 6.5 0 0 0 2.79-1.789q.678-.879 1.35-1.758c.294-.687.583-1.378.876-2.066.105-.766.207-1.531.308-2.305m12.09 18.321a7.3 7.3 0 0 0-1.101-.422 5 5 0 0 0-.852-.293c-.2-.043-.398-.082-.605-.117-.844-.325-1.766-.407-2.668-.285-1.387.187-2.79.937-3.782 2.007-.171.137-.343.262-.52.399a5.87 5.87 0 0 0-1.609 2.504c-.68 1.62-.835 3.336-.39 5.07.824 3.191 3.12 5.637 6.285 6.621 1.824.566 4.008.621 5.848.043 3.797-1.2 6.23-4.746 5.695-8.727-.434-3.234-3.023-6.222-6.3-6.8m-1.867-.496h.004zm415.265-130.926.308-.149c.559-.265.832-.437 1.414-1.015a4.26 4.26 0 0 0 1.184-1.836c.355-.68.52-1.418.488-2.203 0-1.547-.644-2.918-1.672-4.035a5.7 5.7 0 0 0-2.52-1.47l-1.515-.202c-1.523-.067-2.945.675-4.035 1.672a5.74 5.74 0 0 0-1.469 2.52 4.3 4.3 0 0 0-.101 2.28c.03.758.257 1.461.675 2.121a5.8 5.8 0 0 0 2.047 2.047l.653.309c.347.164.707.312 1.066.45q1.164.315 2.324 0c.383-.122.785-.317 1.153-.49M613.5 1312.21a7.35 7.35 0 0 0 6.36 3.645 7.33 7.33 0 0 0 3.71-1.003 7.4 7.4 0 0 0 2.645-2.641l.383-.906a7.8 7.8 0 0 0 1.066-3.946 7.8 7.8 0 0 0-1.066-3.941c-1.391-2.371-3.989-3.871-6.739-3.871a7.88 7.88 0 0 0-6.746 3.871 7.8 7.8 0 0 0-1.066 3.941 7.8 7.8 0 0 0 1.066 3.946Zm-24.66 77.595c1.203 1.445 3.426 1.402 4.953.644 2.031-1.02 3.535-3.683 4.914-5.437 1.754-2.235 2.781-4.602 1.984-7.504a7.78 7.78 0 0 0-5.39-5.387c-5.703-1.574-11 3.816-9.489 9.488.731 2.735 1.184 5.989 3.028 8.196m6.492 45.004a7.8 7.8 0 0 0-2.77 2.773 7.67 7.67 0 0 0-1.046 3.89c-.207 1.942-.625 3.962-.067 5.872.586 2.011 1.946 3.504 3.848 4.312 1.765.742 4.277.899 5.914-.336 1.203-.918 2.008-1.59 2.832-2.882.203-.32.39-.653.586-.973.418-.707.836-1.402 1.258-2.102 2.57-4.281.133-10.023-4.61-11.328-1.93-.531-4.215-.23-5.945.774m-35.137 64.491a6.9 6.9 0 0 0 1.762 3.02l1.39 1.075a6.77 6.77 0 0 0 3.458.937 5.2 5.2 0 0 0 2.64-.594 5.15 5.15 0 0 0 2.207-1.418 5.16 5.16 0 0 0 1.418-2.203q.644-1.223.59-2.64l-.242-1.82a6.87 6.87 0 0 0-1.766-3.032c-.46-.352-.922-.71-1.386-1.062a6.74 6.74 0 0 0-3.461-.938 5.17 5.17 0 0 0-2.64.582 5.2 5.2 0 0 0-2.204 1.418 5.14 5.14 0 0 0-1.418 2.215 5.14 5.14 0 0 0-.59 2.637c.078.609.16 1.214.242 1.824m-25.808 30.164c-8.145 0-8.157 12.656 0 12.656 8.144 0 8.16-12.656 0-12.656m351.379-454.555c-.332-.12-1.075-.457.214.13-1.984-.903-5.082-.798-6.109 1.593-.8 1.86-1.191 3.308-.855 5.37.203 1.224.625 2.349 1.222 3.435 1.344 2.406 3.317 4.214 5.535 5.804 3.664 2.61 8.957.188 10.532-3.554.812-1.915.812-3.81 0-5.723-.817-1.95-2.594-3.93-4.805-4.305-.27-.043-1.328-.45-1.809-.523l-.566-.344c-.512-.34-1.008-.684-1.516-1.008-.601-.387-1.093-.605-1.843-.875m4.25 2.414-.098-.058c.426.195.89.476.098.058M789.32 1051.98c8.942 0 8.957-13.902 0-13.902-8.945 0-8.96 13.902 0 13.902m-12.168-38.039a5.46 5.46 0 0 0 1.993 1.996l.644.305c.344.168.691.309 1.035.446q1.125.304 2.25 0c.375-.122.758-.31 1.117-.473l.309-.153c.547-.261.816-.425 1.387-.988a4.16 4.16 0 0 0 1.152-1.793 4.3 4.3 0 0 0 .48-2.144c0-1.516-.628-2.848-1.632-3.938a5.56 5.56 0 0 0-2.453-1.43q-.743-.1-1.485-.203c-1.476-.058-2.87.66-3.93 1.633a5.5 5.5 0 0 0-1.43 2.453 4.2 4.2 0 0 0-.105 2.22 4.1 4.1 0 0 0 .668 2.07m74.058 59.999c8.755 0 8.77-13.609 0-13.609-8.757 0-8.773 13.61 0 13.61m89.884-12.552c7.785 0 7.797-12.085 0-12.085-7.774 0-7.782 12.086 0 12.086m93.14 153.601a7.3 7.3 0 0 0 1.883 3.23q.739.574 1.485 1.15a7.33 7.33 0 0 0 3.703 1.003 5.5 5.5 0 0 0 2.824-.637 5.46 5.46 0 0 0 2.363-1.515 5.56 5.56 0 0 0 1.516-2.356 5.5 5.5 0 0 0 .629-2.824c-.09-.652-.172-1.3-.262-1.953a7.35 7.35 0 0 0-1.883-3.23c-.496-.383-.988-.766-1.492-1.15a7.3 7.3 0 0 0-3.695-1.003 5.55 5.55 0 0 0-2.828.633q-1.361.445-2.352 1.512a5.54 5.54 0 0 0-1.523 2.363 5.53 5.53 0 0 0-.63 2.828c.09.652.18 1.297.262 1.95m60.121 17.362c9.68 0 9.696-15.046 0-15.046-9.68 0-9.703 15.046 0 15.046m33.887-57.667c9.442 0 9.457-14.665 0-14.665-9.43 0-9.445 14.665 0 14.665m32.953-1.028a7.1 7.1 0 0 0 1.82 3.13q.722.56 1.442 1.108a7.04 7.04 0 0 0 3.574.973 5.46 5.46 0 0 0 2.739-.613 5.3 5.3 0 0 0 2.277-1.469 5.3 5.3 0 0 0 1.469-2.281 5.34 5.34 0 0 0 .609-2.73q-.122-.944-.25-1.887a7.13 7.13 0 0 0-1.828-3.137c-.48-.367-.961-.734-1.43-1.11a7.14 7.14 0 0 0-3.586-.964 5.3 5.3 0 0 0-2.734.613 5.35 5.35 0 0 0-2.281 1.46 5.46 5.46 0 0 0-1.47 2.29 5.4 5.4 0 0 0-.609 2.734c.09.625.168 1.254.258 1.883m23.047-81.406c9.559 0 9.574-14.863 0-14.863-9.554 0-9.574 14.863 0 14.863m23.578-31.394c-8.082 0-8.097 12.558 0 12.558 8.082 0 8.098-12.559 0-12.559m-3.5-77.988a6.69 6.69 0 0 0 6.68 0c1.957-1.148 3.352-3.406 3.273-5.715-.035-.984-.066-1.957-.125-2.941-.113-1.781-.886-3.371-2.476-4.3-1.496-.88-3.543-.954-5.035 0a85 85 0 0 0-2.317 1.526c-1.965 1.336-3.277 3.262-3.277 5.715a6.68 6.68 0 0 0 3.277 5.715m15.285-43.511c8.149 0 8.157-12.669 0-12.669-8.14 0-8.156 12.668 0 12.668m4.422-40.281c-7.652 0-7.668 11.89 0 11.89 7.657 0 7.664-11.89 0-11.89m2.797-70.723c3.246.653 6.63-.93 7.559-4.289.863-3.136-1.059-6.75-4.29-7.55-.015 0-.507-.145-.847-.243l-.492-.289c-.375-.332-.691-.707-1.02-1.074a90 90 0 0 0-.722-.765c-.262-.344-.524-.68-.793-1.028l-.047-.066c-.067-.106-.582-.953-.465-.7-.621-1.226-.742-2.144-1.406-3.44-.828-1.618-3.414-2.391-4.934-1.298-3.644 2.633-4.363 7.746-3 11.84 1.508 4.543 5.809 7.965 10.457 8.902m2.176-12.148q.046.035 0 0m0 0c-.04-.031-.105-.098-.21-.187l-.028-.032c.117.114.199.18.238.219m15.66-60.594c8.758 0 8.774-13.613 0-13.613-8.754-.004-8.777 13.613 0 13.613m51.832-60.847a7.3 7.3 0 0 0 1.895 3.254c.496.386 1 .77 1.492 1.156 1.156.664 2.39 1 3.726 1.008a5.6 5.6 0 0 0 2.844-.637 5.5 5.5 0 0 0 2.367-1.527c.72-.668 1.239-1.457 1.532-2.375a5.63 5.63 0 0 0 .636-2.84c-.09-.657-.18-1.309-.261-1.965a7.34 7.34 0 0 0-1.907-3.254c-.496-.387-.988-.774-1.492-1.156a7.33 7.33 0 0 0-3.726-1.008 5.55 5.55 0 0 0-2.84.637 5.5 5.5 0 0 0-2.371 1.527 5.5 5.5 0 0 0-1.528 2.371 5.54 5.54 0 0 0-.636 2.848zm0 0" style="stroke:none;fill-rule:nonzero;fill:#ce3b17;fill-opacity:1"/><path d="m515.906 1362.703-101.3-57.238c-31.286-17.668-67.95-35.863-101.504-23.117-15.122 5.726-27.34 17.148-38.762 28.597-13.547 13.625-26.852 28.043-35.2 45.403-14.976 31.183-12.113 67.64-8.937 102.109 2.234 24.375 21.16 45.68 40.61 60.488 3.101 2.364 6.355 4.7 9.55 7.121a627 627 0 0 1-4.375-7.804c.79.039 1.598.023 2.422-.059 4.266-.43 7.004-2.52 8.524-6.488 5.859-15.332-11.438-31.754-16.368-45.235-3.144-8.609-12.644-11.195-19.082-7.078a152 152 0 0 1-1.336-6.12c-2.175-11.09-2.886-22.352-2.265-33.524a15.5 15.5 0 0 0 5.156 2.437c13.137 3.426 18.586-9.86 20.094-20.28 1.37-9.411 4.613-20.75 3.949-30.188-.531-7.649-5.254-12.809-11.14-14.489 5.738-10.48 12.726-20.289 20.808-29.093 2.2 8.543 12.121 15.613 20.703 12.289.82-.313 1.676-.442 2.488-.735 2.696-.957 4.61-2.3 6.805-3.836.113-.054.442-.234 1.024-.535.195-.105 1.113-.598 1.785-.965a167 167 0 0 0 4.136-1.883q.322-.159.48-.242c.22-.09.466-.191.74-.312-.696.293 4.655-2.227 2.597-1.2-2.695 1.348 6.195-2.394 1.933-.87 8.305-2.97 12.13-12.208 8.965-19.383a42.6 42.6 0 0 1 6.969 3.14c7.055 3.996 13.668 8.946 19.738 14.27 8.328 7.297 15.93 15.379 23.703 23.273-11.601-.18-21.957 12.867-14.664 23.914 2.371 3.59 5.141 6.735 7.871 10.016-2.582-3.082 3.524 4.851 4.676 6.14 2.375 2.665 5.125 4.981 8.078 6.997 10.79 7.363 27.328 9.117 38.168 1.109 3.184-2.344 5.7-6.46 6.024-10.547 19.879 9.656 41.738 15.266 63.812 16.246a228 228 0 0 1 6.836-18.195c4.016-9.465 3.98-6.879 9.113-15.785.528-.946 1.122-2.024 1.223-3.113l.035-.762c-.242-2.102-2.27-3.43-4.082-4.473m339.774 258.981c1.488-11.614-4.649-20.516-11.953-29.153-6.649-7.863-14.688-17.176-24.125-21.625-7.942-3.742-18.489 1.742-19.41 9.645-8.481-6.473-17.274-12.754-25.817-19.196 2.836-1.816 4.988-5.21 4.734-8.488-.855-11.031-9.98-17.21-16.855-24.855-6.621-7.356-11.285-16.649-19.438-22.383-5.93-4.164-13.398-.367-16.046 5.488a79 79 0 0 1-3.715-8.734c-5.032-14.227-6.696-29.028-5.996-43.934a136 136 0 0 0-3.66 15.16c-4.852 26.926 4.331 54.868 19.312 77.704 14.98 22.87 35.473 41.527 55.695 59.925 24.82 22.563 22.836 46.446 27.551 79.664 2.828 19.832 1.633 40.961-8.074 58.493-2.586 4.699-5.895 9.07-9.719 12.91 16.848-10.535 31.395-24.684 41.434-41.778 14.332-24.422 18.855-54.957 9.851-81.804a76 76 0 0 0-3.691-9.032c5.363 1.532 9.304-3.27 9.922-8.007m306.39-215.317c-3.738-19.344-12.668-36.113-24.867-50.867a391 391 0 0 1-42.742 23.094c-43.094 19.87-89.813 9.394-135.55-3.285-8.923-2.473-17.915-5.055-26.954-7.52 30.61 19.082 68.309 30.352 89.031 61.45a72 72 0 0 1 3.051 4.991c-5.652 12.641-6.223 26.29-.812 39.297 2.355 5.676 6.113 12.434 11.015 17.239-.863 9.972-2.773 19.921-5.383 29.453-.136.48-.27.968-.406 1.449-16.172 7.242-24.973 29.176-24.515 45.73.14 5.047.906 10.364 2.64 15.258-3.148 8.758-6.043 17.59-8.332 26.617-1.379 5.446-2.547 11.122-1.558 16.657 1.273 7.129 5.906 12.812 11.996 16.84 5.156 3.41 11.359 5.632 17.43 6.546 23.167 3.465 46.816-6.972 63.863-23.035 17.058-16.062 28.406-37.207 37.875-58.636a480 480 0 0 0 31.046-97.055c4.352-21.13 7.266-43.031 3.172-64.223m-342.906-48.519c-11.223 2.554-21.996 6.836-32.11 12.504 1.696 9.507 2.805 17.808 2.618 23.957-.442 13.879-2.106 27.941.75 41.527s11.433 27.039 24.746 30.973c10.047 2.968 20.184.03 29.18-5.668 6.523-4.137 12.449-9.723 17.289-15.567 20.199-24.375 31.289-54.535 36.687-85.988-26.43-5.406-53.015-7.691-79.16-1.738M779.852 945.7c15.675-29.055 11.132-65.165-.88-95.93a205 205 0 0 0-11.628-24.864c-12.29-22.316-28.735-42.328-48.848-57.941-17.773-13.79-39.176-24.23-61.664-23.88-64.46.942-78.254 80.493-71.723 136.685a197 197 0 0 0 2.047 13.453c.946 5.007 2.055 9.722 3.297 14.027 6.356 21.934 17.215 43.063 34.29 58.215 15.714 13.933 36.07 22.144 56.882 24.828 14.734 1.89 30.102.66 44.457-3.523 22.59-6.586 42.664-20.485 53.77-41.07m-121.32-10.805c-3.989.113-7.446-.81-10.34-2.45-8.036-4.566-11.692-14.683-10.09-23.605-4.528-2.195-8.473-5.805-11.125-10.309-12.758-21.699 5.437-54.894 32.195-47.039 12.312 3.625 19.16 16.332 18.926 28.594a33.6 33.6 0 0 1-.598 5.695c8.836-3.117 17.488-6.687 26.39-10.625 11.348-5.023 29.864-11.71 34.977 4.824 5.203 16.817-15.73 33.215-28.203 40.438-7.441 4.305-15.574 7.684-23.992 10.09-9.215 2.648-18.774 4.125-28.14 4.387m284.698-54.887c2.438 13.445 5.864 27.07 13.551 38.387 7.617 11.238 20.235 19.94 33.832 19.726h.137c9.566-.172 18.578-4.68 26.262-10.371 24.367-17.988 37.398-47.875 39.25-78.363a56 56 0 0 1-6.149 3.773c-7.34 3.906-14.867 7.09-22.289 7.153-5.437.042-10.82-1.598-16.015-5.864-1.582-1.297-2.75-3.074-3.532-5.054a20 20 0 0 1-4.347-3.106c-6.2-5.781-11.778-12.34-13.602-20.86-.965-4.519-1.031-9.199.356-13.554a20.5 20.5 0 0 1-.196-3.43c.246-10.03 8.93-18.168 18.969-18.168 13.016 0 23.336 11.676 26.938 23.239.148.472.285.953.41 1.433 4.867-2.722 9.703-5.16 15.086-7.125-8.344-31.5-26.743-60.062-48.36-84.754-5.718-6.515-11.254-10.86-16.476-13.383-21.121-10.175-37.325 9.438-41.102 36.364a1227 1227 0 0 0-1.476 10.75c-4.516 33.703-7.586 66.246-4.461 99.808a277 277 0 0 0 3.214 23.399m347.254-135.492a113.7 113.7 0 0 0-10.613 21.722c-32.066 88.473 52.016 198.867 52.57 299.344.954-17.742-.488-36.695-.953-50.824a496 496 0 0 0-.922-18.047c7.758 2.656 17.223-.227 19.418-9.957 4.243-18.852 8.043-52.36-13.53-62.567-4.028-1.902-9.735-1.386-11.962 3.137a31 31 0 0 0-1.633 3.996c-2.218-14.09-4.695-28.14-7.25-42.18 10.137 2.235 21.875-3.269 20.782-16.132-1.649-19.453-2.465-47.961-16.653-63.52-1.558-3.824-3.55-7.054-6.207-8.539l-.906-.511c-3.57-1.993-7.234-2.227-10.547-1.145.098-3.895.434-7.77 1.086-11.625 1.32-7.797 3.906-15.297 7.285-22.465 4.942 5.902 14.653 8.055 20.719 1.45 4.855-5.294 10.195-10.325 15.332-15.387 6.445-6.36 14.492-12.328 13.563-22.575-.61-6.664-3.93-10.636-9.965-13.093a17 17 0 0 0-1.989-.668 184 184 0 0 1 19.95-16.254c2.574-1.813 5.289-4.09 7.664-6.606-34.27 3.582-66.899 23.153-85.239 52.446m0 0" style="stroke:none;fill-rule:nonzero;fill:#d1a152;fill-opacity:1"/><path d="M1015.152 1595.465c8.907 7.324 20.559 5.316 28.012-2.805 11.352-12.367 22.063-34.086 14.754-49.91-.113-12.918-8.488-25.777-23.176-23.047-2.203.41-4.3 1.078-6.289 1.965-16.172 7.242-24.973 29.176-24.515 45.73.14 5.047.906 10.364 2.648 15.258 1.746 4.942 4.488 9.45 8.566 12.809m3-46.594c.18-2.95 1.246-5.828 3.016-8.332 1.363-1.934 4.375-2.633 6.07-.914 2.07-.121 4.23 1.754 4.14 3.883a59 59 0 0 1-.456 5.152c.2 6.727-1.703 13.242-5.828 18.88a4.3 4.3 0 0 1-.95.952q-.313.53-.64 1.059c-1.582 2.601-6.266 2.43-6.902-.903a36 36 0 0 1-.579-4.757c-.988-5.317-.187-10.508 2.13-15.02m36.429-53.59c13.164-6.164 16.973-24.031 14.754-37.093-2.512-14.793-13.008-29.356-27.258-34.41-6.254-2.22-12.363 1.206-15.535 6.39a8.3 8.3 0 0 0-1.727 2.398q-.406.833-.777 1.664c-5.652 12.641-6.23 26.29-.812 39.305 2.355 5.668 6.105 12.434 11.007 17.23 5.465 5.348 12.356 8.258 20.348 4.516m-11.027-23.261a3.57 3.57 0 0 1-1.688 2.125 26.6 26.6 0 0 1-1.5 4.046c-1.328 2.844-5.008 1.485-5.953-.777a78 78 0 0 1-3.547-10.574c-3.281-5.25-4.289-11.8-2.27-18.031.548-1.68 2.098-2.61 3.641-2.461 1.246-.368 2.723-.075 3.805.824 2.21 1.836 4 4.004 5.36 6.375 1.124-.016 2.226.613 2.624 2.055.598 2.195.63 4.324.246 6.363.457 3.285.23 6.703-.718 10.055m0 0" style="stroke:none;fill-rule:nonzero;fill:#f0c47c;fill-opacity:1"/><path d="M1016.36 1568.613c.636 3.328 5.316 3.5 6.906.899.21-.352.418-.703.629-1.063.351-.25.675-.562.953-.945 4.125-5.64 6.027-12.156 5.824-18.875.226-1.695.375-3.41.457-5.149.09-2.132-2.074-4.003-4.137-3.886-1.695-1.715-4.707-1.02-6.074.922-1.762 2.5-2.832 5.379-3.012 8.316-2.316 4.523-3.12 9.711-2.12 15.02.081 1.574.269 3.164.573 4.761m27.411-113.011c-.395-1.442-1.493-2.07-2.622-2.055a23.5 23.5 0 0 0-5.355-6.367c-1.078-.899-2.555-1.192-3.8-.825-1.544-.152-3.098.778-3.645 2.457-2.016 6.235-1.012 12.77 2.273 18.028a78.4 78.4 0 0 0 3.54 10.566c.944 2.262 4.632 3.621 5.96.778a27 27 0 0 0 1.492-4.04c.785-.453 1.422-1.187 1.684-2.124.953-3.352 1.18-6.77.723-10.055.386-2.04.351-4.168-.25-6.363m0 0" style="stroke:none;fill-rule:nonzero;fill:#845817;fill-opacity:1"/><path d="M861.637 1445.574c20.199-24.375 31.289-54.535 36.687-85.988-26.43-5.406-53.015-7.691-79.16-1.738-11.223 2.554-21.996 6.836-32.11 12.504 1.696 9.515 2.813 17.808 2.618 23.957-.434 13.879-2.106 27.941.75 41.527s11.433 27.039 24.746 30.973c10.047 2.968 20.184.03 29.18-5.668 6.523-4.137 12.449-9.723 17.289-15.567M628.758 927.54c6.297 2.41 12.808 4.003 19.433 4.905-8.035-4.566-11.691-14.683-10.09-23.605-4.527-2.195-8.472-5.797-11.124-10.309-12.758-21.699 5.437-54.894 32.199-47.039 12.308 3.625 19.156 16.332 18.922 28.594a33.6 33.6 0 0 1-.598 5.695c8.836-3.117 17.488-6.687 26.39-10.625 11.348-5.023 29.864-11.71 34.977 4.824 5.203 16.817-15.734 33.215-28.203 40.438-7.445 4.305-15.574 7.684-23.992 10.098 7.152-1.559 14.187-3.727 20.965-6.364 27.379-10.648 53.426-31.57 58.98-60.445 2.473-12.715.727-25.809.727-38.8-12.29-22.317-28.735-42.329-48.848-57.934-17.773-13.797-39.176-24.239-61.664-23.887-64.46.941-78.254 80.492-71.723 136.684 8.696 21.828 20.532 38.902 43.649 47.77m317.195-181.485a1222 1222 0 0 0-1.476 10.754c-4.52 33.703-7.586 66.238-4.461 99.804 3.109 8.625 9.043 15.852 23.047 20.32 10.578 3.391 22.167 2.837 32.93 0 11.687-3.05 22.585-8.847 31.831-16.62-5.437.042-10.82-1.598-16.015-5.864-1.582-1.297-2.75-3.074-3.532-5.054a20 20 0 0 1-4.347-3.106c-6.2-5.781-11.778-12.34-13.602-20.86-.965-4.519-1.031-9.199.356-13.554a20.4 20.4 0 0 1-.196-3.43c.246-10.03 8.93-18.168 18.969-18.168 13.016 0 23.336 11.676 26.938 23.239.148.472.285.953.41 1.433 4.867-2.722 9.71-5.16 15.093-7.125-8.351-31.5-26.75-60.062-48.367-84.754-5.718-6.515-11.254-10.86-16.476-13.383-21.121-10.171-37.325 9.438-41.102 36.368m0 0" style="stroke:none;fill-rule:nonzero;fill:#f0c47c;fill-opacity:1"/><path d="M407.793 1379.996c-4.168-2.25-7.813-5.121-11.441-8.137-4.407-3.664-10.172 1.95-6.329 6.329 5.801 6.613 18.059 16.113 27.473 13.492 2.324-.649 2.906-3.465 1.363-5.168-2.89-3.196-7.34-4.508-11.066-6.516m-78.375-63.922c-8.688-1.883-17.934 3.254-24.027 9.059-2.73 2.601.863 7.488 4.09 5.308 3.257-2.199 6.64-4.254 10.257-5.796 3.395-1.45 7.008-2.543 10.227-4.356 1.668-.937 1.406-3.789-.547-4.215m500.859 279.531c2.309 2.52 4.305 5.07 7.293 6.848 1.434.86 3.7-.219 3.54-2.027-.368-4.203-2.52-7.301-5.352-10.301-3.028-3.203-5.832-5.21-9.918-6.695-2.805-1.02-4.246 2.683-2.664 4.566 2.25 2.668 4.722 5.031 7.101 7.61m0 0" style="stroke:none;fill-rule:nonzero;fill:#845817;fill-opacity:1"/><path d="M1450.996 629.398a47.06 47.06 0 0 0 29.375-9.71 44.55 44.55 0 0 0 15.086-25.458 286 286 0 0 0 4.008-55.187c.152-26.055.625-43.219 1.41-51.492a98 98 0 0 1 7.836-31.606 56.6 56.6 0 0 1 14.148-19.082 57.1 57.1 0 0 1 21.59-10.87 126.5 126.5 0 0 1 28.942-2.345h13.12v36.739h-7.25a43.84 43.84 0 0 0-32.3 8.773 63.72 63.72 0 0 0-7.961 39.215 678 678 0 0 1-2.57 77.477 88.8 88.8 0 0 1-14.399 38.617 85.6 85.6 0 0 1-31.937 24.125 71.4 71.4 0 0 1 37.336 32.879 166.05 166.05 0 0 1 11.586 72.449c0 30.433.312 48.547.937 54.36a32.92 32.92 0 0 0 9.445 22.144 49.45 49.45 0 0 0 29.84 6.312h7.258v36.801h-13.121a106 106 0 0 1-33.234-3.75 55.7 55.7 0 0 1-24.817-17.434 62.8 62.8 0 0 1-12.762-30.554 453 453 0 0 1-3.097-60.621 309 309 0 0 0-4.008-58.227 45.2 45.2 0 0 0-15.086-25.512 46.65 46.65 0 0 0-29.375-9.82Zm449.317 38.145a46.63 46.63 0 0 0-29.368 9.824 45.13 45.13 0 0 0-15.093 25.512 309 309 0 0 0-3.973 58.277c.3 20.258-.758 40.512-3.164 60.63a62.8 62.8 0 0 1-12.77 30.546 55.55 55.55 0 0 1-24.816 17.434 105.9 105.9 0 0 1-33.227 3.757h-13.12v-36.726h7.25a49.45 49.45 0 0 0 29.84-6.32 32.87 32.87 0 0 0 9.483-22.23c.622-5.77.938-23.892.938-54.356a166.1 166.1 0 0 1 11.582-72.457 71.4 71.4 0 0 1 37.336-32.84 85.6 85.6 0 0 1-31.863-24.11 88.8 88.8 0 0 1-14.395-38.613 675 675 0 0 1-2.562-77.476 63.84 63.84 0 0 0-7.97-39.215 43.84 43.84 0 0 0-32.292-8.774h-7.258v-36.758h13.121a126.6 126.6 0 0 1 28.863 2.344 57.1 57.1 0 0 1 21.543 10.89 56.7 56.7 0 0 1 14.145 19.083 98 98 0 0 1 7.836 31.605c.773 8.274 1.246 25.438 1.41 51.493-.473 18.5.863 37 3.973 55.242a44.53 44.53 0 0 0 15.086 25.402 47.08 47.08 0 0 0 29.375 9.711Zm0 0" style="stroke:none;fill-rule:nonzero;fill:#f5de19;fill-opacity:1"/><path d="M2294.828 762.984h-216.457v-124.89h216.457Zm-170.707 887.368q-70.488-.001-91.594-13.25v-119.805q6.242 2.057 19.86 2.058c10.668 0 17.672-2.894 21-8.687 3.32-5.79 4.984-14.48 4.984-26.059V813.125h216.457v666.32q0 82.917-40.86 126.95-40.755 43.957-129.847 43.957m256.063-87.993V813.125h216.554v95.21c9.078-30.733 24.75-55.64 46.992-74.741 22.254-19.09 51.95-28.64 89.098-28.64q91.49-.001 135.465 46.534c29.254 31.078 43.871 75.29 43.871 132.625v578.246h-212.809v-559.836c0-16.398-3.921-30.39-11.75-41.976q-11.751-17.456-36.488-17.457-33.381 0-43.875 25.113c-7.004 16.742-10.504 39.082-10.504 67.004v527.152Zm983.605 0h-251.184l-144.71-749.234h216.445l44.601 378.703 7.387 121.793 8.629-122.828 49.484-377.668H3511Zm0 0" style="stroke:none;fill-rule:nonzero;fill:#ce3b17;fill-opacity:1"/><path d="m2423.66 2669.818-22.759-84.156h14.057l9.874 37.978c.677 2.49 1.297 5.002 1.85 7.528.197.922.39 1.844.567 2.761a838 838 0 0 0 2.1 10.123 319 319 0 0 0 2.173 10.877h.166c.782-3.568 1.673-7.2 2.684-10.877.89-3.121 1.839-6.492 2.84-10.123 1-3.62 2.01-7.048 3.005-10.289l11.885-37.978h17.897l9.54 37.978q1.172 4.86 2.422 10.29a213 213 0 0 1 2.1 10.122c.667 3.677 1.329 7.309 2 10.877h.168c1-3.678 2.063-7.361 3.183-11.039a502 502 0 0 1 3.006-10.127c1.12-3.621 2.183-6.992 3.184-10.123l11.707-37.978h13.89l-27.608 84.156H2478.7l-12.04-46.178q-.751-2.834-1.439-5.678-.752-3.063-1.323-5.783a888 888 0 0 0-.777-3.6c-.213-.937-.411-1.828-.599-2.657a262 262 0 0 0-.552-2.354c-.48-2.397-.922-4.548-1.308-6.45-.073-.307-.13-.61-.193-.917h-.338a346 346 0 0 1-1.079 4.85 220 220 0 0 1-.594 2.517c-.557 2.323-1.328 5.183-2.329 8.554 0 .016-.01.036-.01.057-.532 1.782-1.047 3.553-1.568 5.33-.553 1.87-1.12 3.85-1.72 5.933q-.03.104-.062.198l-14.219 46.178Zm-368.752 0v-114.1h13.39l59.892 90.511h.338c-.146-2.11-.27-4.22-.36-6.33-.056-1.349-.098-2.688-.15-4.037a180 180 0 0 1-.24-4.37c-.078-2.001-.14-4.142-.167-6.43-.062-4.073-.093-8.22-.093-12.46v-56.884h13.39v114.1h-13.39l-59.886-90.85h-.344c.114 3.35.281 6.861.5 10.544.11 3.21.224 6.799.344 10.779v.099q.166 6.165.167 12.331v57.097Zm-154.42-111.928-2.349 13.55c-2.407-.599-4.84-1.14-7.279-1.63-.36-.068-.719-.141-1.078-.209-2.574-.562-5.502-1.031-8.79-1.422a82 82 0 0 0-8.623-.568c-.557-.01-1.11-.02-1.662-.02-2.037 0-4.058.088-6.085.27-5.143.49-9.035 1.657-11.65 3.501-3.574 2.506-5.35 6.377-5.35 11.628.109 4.12 1.61 7.611 4.506 10.45a43 43 0 0 0 5.241 4.35 59 59 0 0 0 5.643 3.522 165 165 0 0 0 8.649 4.428c1.87.891 3.751 1.761 5.648 2.59a92.4 92.4 0 0 1 11.822 6.24 85 85 0 0 1 2.49 1.631 45.6 45.6 0 0 1 9.67 8.731c.438.537.87 1.079 1.287 1.636a22.3 22.3 0 0 1 4.142 10.253c.198 1.401.292 2.808.292 4.22a38 38 0 0 1-.542 6.569c-.437 2.438-1.151 4.652-2.12 6.621-.459.938-1 1.85-1.61 2.709-2.84 4.011-6.44 7.142-10.79 9.372a45.8 45.8 0 0 1-12.62 4.23c-.562.11-1.12.198-1.683.276a108 108 0 0 1-10.118 1.053q-2.336.119-4.689.12a92 92 0 0 1-6.778-.23 72 72 0 0 1-5.43-.599c-1.312-.203-2.62-.422-3.933-.651a109 109 0 0 1-3.637-.73 97 97 0 0 1-1.974-.463 77 77 0 0 1-4.997-1.427 63 63 0 0 1-3.533-1.25l3.35-13.55a58.5 58.5 0 0 0 7.102 2.541c.36.1.73.198 1.089.297 2.569.672 5.44 1.292 8.623 1.84q3.625.632 7.32.78a63 63 0 0 0 2.798.063c2.272 0 4.549-.083 6.81-.25 1.73-.13 3.439-.333 5.147-.594 1.62-.24 3.215-.567 4.794-1a30.5 30.5 0 0 0 4.668-1.667 18.4 18.4 0 0 0 3.371-1.99 14.3 14.3 0 0 0 2.902-2.87 11.26 11.26 0 0 0 2.1-5.142c.11-.73.156-1.48.156-2.22a17.3 17.3 0 0 0-.839-5.069 13.9 13.9 0 0 0-3.428-5.548 37 37 0 0 0-4.1-3.521 55.4 55.4 0 0 0-6.774-4.34 185 185 0 0 0-10.665-5.48 174 174 0 0 0-3.892-1.803c-5.179-2.34-9.951-5.017-14.302-8.028s-8.008-6.58-10.957-10.711a23.1 23.1 0 0 1-3.86-9.169 31.6 31.6 0 0 1-.568-6.22c0-3.569.61-7.09 1.839-10.54a22 22 0 0 1 5.137-8.12c.36-.37.74-.73 1.13-1.09 2.82-2.552 6.461-4.652 10.9-6.288q.33-.124.641-.234a40 40 0 0 1 6.351-1.626c3.36-.593 7.128-.88 11.306-.88 2.845 0 5.695.099 8.535.318.969.068 1.948.161 2.928.27 2.772.292 5.273.61 7.492.938.646.1 1.308.204 1.96.313 2.167.39 4.318.818 6.47 1.287.797.182 1.6.364 2.397.552Zm-868.496 111.928v-67.428c.005-.182.016-.36.016-.541.052-2.537-.23-7.43-.86-14.681l12.38-1.667 1.854 10.7a98 98 0 0 1 7.477-4.542 75 75 0 0 1 2.47-1.308 97 97 0 0 1 10.123-4.439 32 32 0 0 1 5.726-1.552c1.422-.24 2.87-.37 4.314-.37 1.61 0 3.22.068 4.83.219 2.496.25 4.71.708 6.627 1.37 3.07 1.063 5.55 2.818 7.45 5.272a18 18 0 0 1 2.309 3.97c.563 1.26 1.032 2.657 1.422 4.178.141.51.26 1.031.37 1.552.329 1.641.579 3.288.761 4.94.188 1.77.328 3.677.406 5.73.053 1.458.084 2.927.084 4.391v54.206h-13.38v-52.7c0-3.126-.052-5.929-.151-8.43-.01-.166-.01-.348-.02-.52-.11-2.62-.59-4.856-1.418-6.7-.844-1.839-2.12-3.256-3.85-4.256-1.22-.714-2.804-1.172-4.72-1.38a22.2 22.2 0 0 0-7.763.521c-1.36.328-2.7.755-3.997 1.276a91 91 0 0 0-9.54 4.433c-2.334 1.25-4.6 2.6-6.82 4.038a88 88 0 0 0-2.71 1.818v61.9Zm1766.77 0v-67.428c.01-.182.02-.36.02-.541.047-2.537-.234-7.43-.854-14.681l12.38-1.667 1.844 10.7a98 98 0 0 1 9.946-5.85 98 98 0 0 1 10.124-4.439 32 32 0 0 1 5.726-1.552 26 26 0 0 1 4.314-.37c1.61 0 3.22.068 4.83.219 2.5.25 4.72.708 6.627 1.37 3.069 1.063 5.549 2.818 7.45 5.272a18.5 18.5 0 0 1 2.319 3.97 27.4 27.4 0 0 1 1.422 4.178c.13.51.25 1.031.36 1.552.328 1.641.588 3.288.76 4.94a81 81 0 0 1 .412 5.73c.057 1.458.078 2.927.078 4.391v54.206h-13.38v-52.7c0-3.126-.052-5.929-.15-8.43-.011-.166-.011-.348-.022-.52-.109-2.62-.588-4.856-1.417-6.7q-1.257-2.757-3.85-4.256c-1.22-.714-2.793-1.172-4.71-1.38a24 24 0 0 0-2.569-.13c-1.75.01-3.5.228-5.2.65a29 29 0 0 0-4 1.277 93 93 0 0 0-9.54 4.433 96 96 0 0 0-6.82 4.038 88 88 0 0 0-2.71 1.818v61.9Zm392.665 0v-73.278h-15.557v-10.878h15.557c0-2.76.073-5.522.235-8.272a91 91 0 0 1 .709-7.55c.177-1.338.4-2.682.65-4 .881-4.49 2.2-8.278 3.96-11.378.35-.63.74-1.24 1.147-1.844 2.344-3.397 5.35-5.856 9.034-7.356a28 28 0 0 1 5.69-1.62 40 40 0 0 1 5.898-.61q.897-.03 1.802-.031c4.226 0 8.186.698 11.87 2.09a36 36 0 0 1 4.126 1.848q2.765 1.47 4.741 3.251l-5.851 10.04c-2.23-1.668-4.549-3.012-6.95-4.012a19.8 19.8 0 0 0-6.998-1.495c-.26 0-.52-.01-.781-.01-1.146 0-2.298.088-3.439.275-2.1.36-3.85 1.073-5.262 2.152a13.9 13.9 0 0 0-3.986 4.86 18 18 0 0 0-.782 1.75c-1.062 2.778-1.719 6.05-2 9.78a142 142 0 0 0-.35 6.98 174 174 0 0 0-.072 5.152h20.913v10.878h-20.913v73.278Zm-1592.097 0-30.949-84.156h14.719l20.408 59.4 3.694 13.217h.157l3.85-13.217 21.752-59.4h14.047l-32.616 84.156Zm627.238 0-30.948-84.156h14.719l20.413 59.4 3.679 13.217h.172l3.845-13.217 21.752-59.4h14.052l-32.62 84.156Zm717.584 1.344-1.344-8.033a62 62 0 0 1-4.247 2.72 50 50 0 0 1-3.193 1.713 56 56 0 0 1-5.257 2.22c-.86.307-1.73.599-2.6.88a29.3 29.3 0 0 1-5.46 1.167q-1.407.164-2.83.162a35.6 35.6 0 0 1-11.04-1.631 28.37 28.37 0 0 1-13.63-9.492 36 36 0 0 1-6.039-11.456c-1.13-3.423-1.922-7.21-2.402-11.372-.349-3.23-.53-6.47-.52-9.711 0-8.481 1.37-15.561 4.1-21.25a45.4 45.4 0 0 1 4.58-7.616 35.3 35.3 0 0 1 5.71-6.023 39.8 39.8 0 0 1 9.592-5.913 36 36 0 0 1 3.71-1.36 54 54 0 0 1 6.429-1.567c2.298-.402 4.507-.6 6.607-.61h.104c1.427 0 2.87.068 4.298.198.688.063 1.37.13 2.058.224q3.347.412 9.873 2.09v-41.99l13.38-1.511v111.59c0 1.568.031 3.209.089 4.938.052 1.73.161 3.433.328 5.1.151 1.511.323 3.022.5 4.522.031.23.063.448.094.667Zm750.21 0-1.345-8.033a62 62 0 0 1-4.246 2.72 51 51 0 0 1-3.188 1.713 57 57 0 0 1-5.263 2.22q-1.29.46-2.61.88c-1.772.558-3.6.959-5.45 1.167q-1.406.164-2.83.162a35.6 35.6 0 0 1-11.04-1.631 28.45 28.45 0 0 1-13.64-9.492 36.2 36.2 0 0 1-6.038-11.456c-1.12-3.423-1.912-7.21-2.392-11.372a88 88 0 0 1-.52-9.711c0-8.481 1.37-15.561 4.1-21.25a45.4 45.4 0 0 1 4.58-7.616 35.3 35.3 0 0 1 5.71-6.023 39.8 39.8 0 0 1 9.592-5.913 36 36 0 0 1 3.71-1.36 54 54 0 0 1 6.429-1.567c2.297-.402 4.501-.6 6.611-.61h.1c1.427 0 2.87.068 4.298.198.682.063 1.37.13 2.047.224q3.36.412 9.884 2.09v-41.99l13.38-1.511v111.59c0 1.568.031 3.209.078 4.938.063 1.73.172 3.433.339 5.1.15 1.511.323 3.022.5 4.522.031.23.062.448.083.667Zm-2564.83-108.922 13.39-1.672v25.094h24.259v10.878h-24.259v44.672c0 3.678.079 6.747.25 9.2.037.72.12 1.438.209 2.147q.149 1.096.36 2.01c.13.569.302 1.142.51 1.699a9 9 0 0 0 .677 1.391c.323.51.683.943 1.094 1.282.178.161.37.296.579.422q1.305.804 3.267.906c.192.01.38.01.573.01a23 23 0 0 0 5.278-.791 36 36 0 0 0 5.132-1.787 58 58 0 0 0 4.319-2.1l4.012 10.2c-3.064 2.048-5.95 3.527-8.66 4.45a27 27 0 0 1-1.63.49c-3.184.838-6.33 1.25-9.452 1.25-1.86.02-3.71-.141-5.538-.459q-3.049-.57-5.372-1.813a13.2 13.2 0 0 1-4.57-4 19.2 19.2 0 0 1-2.38-4.867c-1.1-3.26-1.761-7.34-1.97-12.253a88 88 0 0 1-.078-3.709v-48.35h-15.39v-10.878h15.39Zm357.039 0 13.38-1.672v25.094h24.258v10.878h-24.259v44.672c0 3.678.079 6.747.25 9.2q.07 1.082.22 2.147.132 1.096.359 2.01c.13.569.302 1.142.51 1.699.183.485.412.953.683 1.391.318.51.677.943 1.079 1.282a4 4 0 0 0 .578.422q1.32.804 3.272.906c.187.01.39.01.578.01a23 23 0 0 0 5.273-.791 36 36 0 0 0 5.127-1.787 55 55 0 0 0 4.319-2.1l4.022 10.2c-3.058 2.048-5.95 3.527-8.67 4.45a23 23 0 0 1-1.62.49c-3.178.838-6.33 1.25-9.451 1.25-1.86.02-3.72-.141-5.549-.459-2.032-.38-3.809-.984-5.361-1.813a13.14 13.14 0 0 1-4.57-4 18.9 18.9 0 0 1-2.391-4.867c-1.089-3.26-1.745-7.34-1.97-12.253a80 80 0 0 1-.067-3.709v-48.35h-15.402v-10.878h15.402Zm1835.7 0 13.38-1.672v25.094h24.258v10.878h-24.258v44.672c0 3.678.088 6.747.25 9.2q.07 1.082.219 2.147.148 1.096.36 2.01c.13.569.301 1.142.51 1.699.182.485.411.953.682 1.391.318.51.678.943 1.09 1.282.176.161.37.296.567.422q1.32.804 3.272.906c.198.01.39.01.578.01a23.4 23.4 0 0 0 5.284-.791 36 36 0 0 0 5.126-1.787 57 57 0 0 0 4.32-2.1l4.011 10.2c-3.058 2.048-5.95 3.527-8.659 4.45-.542.177-1.084.349-1.63.49-3.179.838-6.331 1.25-9.452 1.25-1.86.02-3.72-.141-5.549-.459q-3.032-.57-5.361-1.813a13.1 13.1 0 0 1-4.57-4 18.8 18.8 0 0 1-2.38-4.867c-1.1-3.26-1.762-7.34-1.97-12.253a80 80 0 0 1-.078-3.709v-48.35h-15.391v-10.878h15.39Zm451.9 0 13.38-1.672v25.094h24.259v10.878h-24.259v44.672c0 3.678.089 6.747.25 9.2q.07 1.082.219 2.147.148 1.096.36 2.01c.13.569.302 1.142.51 1.699.182.485.412.953.677 1.391.323.51.683.943 1.084 1.282.188.161.38.296.578.422q1.32.804 3.272.906c.198.01.391.01.579.01a23.2 23.2 0 0 0 5.273-.791 36 36 0 0 0 5.137-1.787 55 55 0 0 0 4.309-2.1l4.022 10.2c-3.059 2.048-5.95 3.527-8.67 4.45-.531.177-1.073.349-1.62.49-3.178.838-6.33 1.25-9.452 1.25-1.86.02-3.72-.141-5.548-.459q-3.033-.57-5.362-1.813a13.1 13.1 0 0 1-4.569-4 18.8 18.8 0 0 1-2.381-4.867c-1.1-3.26-1.761-7.34-1.98-12.253a98 98 0 0 1-.068-3.709v-48.35h-15.39v-10.878h15.39Zm-2402.38 108.922-1.673-9.2a154 154 0 0 1-7.477 4.017 106 106 0 0 1-7.112 3.23.1.1 0 0 1-.047.02 37.8 37.8 0 0 1-12.931 2.73q-.858.032-1.71.032a36.2 36.2 0 0 1-7.31-.672c-4.152-.818-7.653-2.407-10.513-4.757q-5.34-4.4-6.357-13.44a40 40 0 0 1-.25-4.554c-.01-2.13.287-4.24.891-6.277a18 18 0 0 1 2.46-5.1 27.7 27.7 0 0 1 7.617-7.383c.38-.25.77-.49 1.162-.729 3.631-2.177 7.731-3.881 12.3-5.1a74 74 0 0 1 14.047-2.35c2.012-.218 4.632-.411 7.873-.578 3.23-.172 5.736-.312 7.529-.422 0-1.74-.031-3.48-.078-5.21-.052-1.64-.12-3.177-.214-4.63-.016-.199-.026-.407-.047-.62q-.329-4.59-2.011-7.857a11.1 11.1 0 0 0-4.929-4.933 13.4 13.4 0 0 0-2.568-.959c-1.735-.448-3.804-.687-6.221-.708-.172-.01-.334-.01-.5-.01q-4.843 0-9.374.588c-1.339.172-2.667.36-4.006.563-1.25.198-2.444.396-3.543.599q-.236.04-.48.088c-1.5.302-3 .63-4.49 1q-1.604.392-3.2.84l-2.678-11.54c1.818-.438 3.647-.828 5.486-1.188 1.183-.234 2.36-.453 3.554-.651q1.946-.39 3.907-.693c1.793-.266 3.72-.51 5.794-.73 2.397-.26 4.81-.416 7.227-.51 1.552-.047 3.1-.078 4.652-.078q2.746-.016 5.481.302c3.236.38 6.018 1.11 8.316 2.21 3.512 1.666 6.252 3.927 8.2 6.777a25.6 25.6 0 0 1 3.794 8.69c.078.343.156.671.219 1.01a57 57 0 0 1 1.047 9.221c.031.75.042 1.49.042 2.24v40.15c0 1.569.03 3.21.088 4.94.052 1.729.162 3.432.334 5.1a185 185 0 0 0 .5 4.521c.026.23.057.448.088.667Zm1391.338 0-1.677-9.2a154 154 0 0 1-7.472 4.017 111 111 0 0 1-7.112 3.23.1.1 0 0 1-.057.02 37.8 37.8 0 0 1-12.932 2.73q-.854.032-1.709.032a36.3 36.3 0 0 1-7.31-.672c-4.152-.818-7.648-2.407-10.498-4.757-3.574-2.933-5.69-7.413-6.372-13.44a38 38 0 0 1-.24-4.554c-.02-2.13.281-4.24.891-6.277a18.4 18.4 0 0 1 2.449-5.1 27.8 27.8 0 0 1 7.622-7.383c.376-.25.766-.49 1.167-.729 3.622-2.177 7.722-3.881 12.291-5.1a74 74 0 0 1 14.063-2.35q3.01-.327 7.857-.578 4.862-.258 7.528-.422c0-1.74-.02-3.48-.067-5.21-.053-1.64-.13-3.177-.22-4.63-.02-.199-.03-.407-.041-.62q-.346-4.59-2.011-7.857c-1.12-2.172-2.762-3.824-4.94-4.933a13 13 0 0 0-2.568-.959c-1.72-.448-3.803-.687-6.221-.708-.161-.01-.328-.01-.49-.01q-4.859 0-9.368.588-2.015.258-4.022.563a150 150 0 0 0-4.012.687c-1.505.302-3.006.63-4.496 1a97 97 0 0 0-3.204.84l-2.678-11.54c1.818-.438 3.652-.828 5.491-1.188q1.767-.352 3.548-.651c1.303-.26 2.6-.49 3.913-.693 1.787-.266 3.72-.51 5.789-.73a105 105 0 0 1 7.231-.51c1.548-.047 3.1-.078 4.648-.078q2.744-.016 5.481.302c3.24.38 6.018 1.11 8.32 2.21 3.518 1.666 6.248 3.927 8.201 6.777a25.6 25.6 0 0 1 3.799 8.69c.078.343.15.671.219 1.01a58 58 0 0 1 1.052 9.221c.016.75.026 1.49.026 2.24v40.15c0 1.569.031 3.21.094 4.94.047 1.729.167 3.432.328 5.1.151 1.51.318 3.021.51 4.521.021.23.048.448.079.667Zm-836.459-85.833a49 49 0 0 0-1.422 3.48c-2.46 6.783-3.679 14.77-3.679 23.959 0 1.49.032 2.99.089 4.48.193 4.293.651 8.294 1.391 12.003a53.8 53.8 0 0 0 3.621 11.628 61.6 61.6 0 0 0 4.32 8.043 46.4 46.4 0 0 0 8.732 10.19c5.298 4.57 11.207 7.867 17.73 9.867q1.885.587 3.809 1.074a63.3 63.3 0 0 0 15.349 1.938c1.87 0 3.74-.089 5.6-.271a66 66 0 0 0 13.558-2.819q9.783-3.096 17.73-10.122a47.5 47.5 0 0 0 6.93-7.648 59.2 59.2 0 0 0 6.121-10.59q.898-1.97 1.6-3.991 3.511-10.033 3.512-23.62c0-2.24-.073-4.491-.209-6.731-.542-8.726-2.172-16.13-4.903-22.209a59 59 0 0 0-4.61-8.46 43.8 43.8 0 0 0-8.441-9.529q-7.947-6.604-17.73-9.2a96 96 0 0 0-3.048-.74 73 73 0 0 0-16.11-1.849c-1.87 0-3.741.089-5.601.266a67 67 0 0 0-13.557 2.823q-9.784 3.102-17.73 9.961c-5.304 4.569-9.65 10.596-13.052 18.067Zm1181.952 122.8v-45a51 51 0 0 1-6.023 3.688 63 63 0 0 1-5.44 2.501 41 41 0 0 1-5.189 1.73c-1.912.495-3.74.791-5.491.9-.49.032-.97.043-1.449.043-4.58 0-8.899-.782-12.968-2.34a27 27 0 0 1-10.384-7.173c-.11-.11-.219-.24-.328-.36a31.6 31.6 0 0 1-4.32-6.33c-1.13-2.146-2.11-4.526-2.959-7.136-1.459-4.512-2.323-9.873-2.579-16.072a96 96 0 0 1-.094-4.251c-.02-3.141.225-6.278.72-9.377.593-3.6 1.542-6.903 2.85-9.925.062-.145.13-.297.192-.448a45.5 45.5 0 0 1 4.887-8.429 37.5 37.5 0 0 1 4.825-5.37c3.96-3.622 8.357-6.33 13.208-8.112a44.4 44.4 0 0 1 8.498-2.24 37 37 0 0 1 5.642-.438c4.241 0 7.701.25 10.369.75 1.11.209 2.22.438 3.318.678 1.011.224 1.965.453 2.845.682.287.078.579.151.87.23 2.006.562 3.898 1.088 5.69 1.588q2.077.584 4.866.724c.552.016 1.1.037 1.652.037v117.783Zm-1865.32-51.528 2.506 11.211a89 89 0 0 1-7.946 2.006c-2.73.563-5.741 1.063-9.034 1.51-2.918.392-5.846.6-8.79.652-.5.01-1 .01-1.5.01a53 53 0 0 1-10.478-1 47 47 0 0 1-5.08-1.339q-7.197-2.343-12.551-7.533a32.6 32.6 0 0 1-5.778-7.626 44.4 44.4 0 0 1-2.673-5.84c-2.058-5.523-3.09-12.29-3.09-20.323a66 66 0 0 1 .652-9.59 48.5 48.5 0 0 1 2.36-9.57 44 44 0 0 1 3.97-8.258 36 36 0 0 1 4.309-5.632 34.4 34.4 0 0 1 12.38-8.45 40.4 40.4 0 0 1 12.379-2.74 47 47 0 0 1 3.1-.099c2.344-.01 4.684.208 6.981.651 2.522.49 4.96 1.34 7.242 2.527 4.007 2.12 7.331 4.99 9.947 8.622a35.7 35.7 0 0 1 4.621 8.762c.47 1.298.891 2.616 1.24 3.95a59 59 0 0 1 1.912 13.81c.01.5.01 1 .01 1.5l-2.51 7.356h-54.04q0 5.199 1.338 10.372a25.4 25.4 0 0 0 4.601 9.373 23.5 23.5 0 0 0 6.32 5.569c.719.437 1.459.838 2.21 1.208q4.577 2.25 11.102 2.548c.677.031 1.36.041 2.037.041 3.34 0 6.409-.187 9.201-.578 1-.14 1.99-.302 2.991-.464a66 66 0 0 0 4.288-.875c1.37-.333 2.72-.724 4.059-1.151.573-.193 1.14-.401 1.714-.61Zm476.159 0 2.511 11.211a90 90 0 0 1-7.95 2.006c-2.73.563-5.742 1.063-9.03 1.51-2.923.392-5.85.6-8.8.652-.49.01-.99.01-1.49.01a53 53 0 0 1-10.483-1 48 48 0 0 1-5.08-1.339c-4.798-1.562-8.977-4.073-12.551-7.533a32.8 32.8 0 0 1-5.778-7.626 43 43 0 0 1-2.668-5.84c-2.063-5.523-3.09-12.29-3.09-20.323-.02-3.21.199-6.408.647-9.59a49 49 0 0 1 2.36-9.57 44 44 0 0 1 3.97-8.258 35.5 35.5 0 0 1 4.309-5.632 34.4 34.4 0 0 1 12.384-8.45 40.3 40.3 0 0 1 12.38-2.74 47 47 0 0 1 3.1-.099 36 36 0 0 1 6.976.651 26.8 26.8 0 0 1 7.243 2.527c4.011 2.12 7.33 4.99 9.951 8.622a36.2 36.2 0 0 1 4.616 8.762 44 44 0 0 1 1.24 3.95 58.3 58.3 0 0 1 1.902 13.81c.02.5.02 1 .02 1.5l-2.51 7.356h-54.04q0 5.199 1.338 10.372a25.4 25.4 0 0 0 4.601 9.373 23.3 23.3 0 0 0 6.32 5.569c.719.437 1.459.838 2.21 1.208q4.58 2.25 11.092 2.548c.677.031 1.37.041 2.047.041 3.34 0 6.414-.187 9.201-.578 1-.14 1.99-.302 2.98-.464a65 65 0 0 0 4.299-.875 63 63 0 0 0 4.064-1.151c.568-.193 1.136-.401 1.709-.61Zm665.55 0 2.51 11.211a90 90 0 0 1-7.95 2.006c-2.73.563-5.742 1.063-9.03 1.51-2.922.392-5.85.6-8.789.652-.5.01-1 .01-1.5.01a53 53 0 0 1-10.483-1 48 48 0 0 1-5.08-1.339c-4.799-1.562-8.978-4.073-12.546-7.533a32.6 32.6 0 0 1-5.784-7.626 43 43 0 0 1-2.667-5.84c-2.064-5.523-3.09-12.29-3.09-20.323q-.028-4.816.646-9.59a49 49 0 0 1 2.36-9.57 44 44 0 0 1 3.97-8.258 35.6 35.6 0 0 1 4.314-5.632 34.35 34.35 0 0 1 12.38-8.45 40.3 40.3 0 0 1 12.38-2.74 47 47 0 0 1 3.1-.099 36 36 0 0 1 6.976.651c2.521.49 4.96 1.34 7.242 2.527 4.012 2.12 7.33 4.99 9.951 8.622a36 36 0 0 1 4.617 8.762q.713 1.948 1.24 3.95a58.8 58.8 0 0 1 1.912 13.81c.01.5.01 1 .01 1.5l-2.511 7.356h-54.04c0 3.465.453 6.924 1.339 10.372.89 3.46 2.433 6.59 4.6 9.373a23.5 23.5 0 0 0 6.32 5.569q1.09.654 2.21 1.208 4.58 2.25 11.092 2.548c.688.031 1.37.041 2.048.041 3.345 0 6.413-.187 9.2-.578a130 130 0 0 0 2.981-.464 66 66 0 0 0 4.304-.875 61 61 0 0 0 4.058-1.151 75 75 0 0 0 1.71-.61Zm210.137 0 2.51 11.211a89 89 0 0 1-7.95 2.006c-2.73.563-5.736 1.063-9.03 1.51a76 76 0 0 1-8.8.652c-.489.01-.99.01-1.49.01a53 53 0 0 1-10.477-1 47 47 0 0 1-5.08-1.339q-7.197-2.343-12.551-7.533a32.6 32.6 0 0 1-5.778-7.626 43 43 0 0 1-2.673-5.84c-2.058-5.523-3.1-12.29-3.1-20.323q-.013-4.816.661-9.59a48.5 48.5 0 0 1 2.36-9.57 44.7 44.7 0 0 1 3.96-8.258 36 36 0 0 1 4.32-5.632q5.267-5.596 12.38-8.45a40.3 40.3 0 0 1 12.379-2.74 47 47 0 0 1 3.09-.099c2.349-.01 4.694.208 6.991.651 2.522.49 4.96 1.34 7.242 2.527 4.007 2.12 7.326 4.99 9.947 8.622a36 36 0 0 1 4.621 8.762 46 46 0 0 1 1.24 3.95 58.8 58.8 0 0 1 1.902 13.81c.015.5.015 1 .015 1.5l-2.506 7.356h-54.04q.001 5.199 1.34 10.372c.89 3.46 2.427 6.59 4.6 9.373a23.3 23.3 0 0 0 6.32 5.569 29 29 0 0 0 2.209 1.208c3.048 1.5 6.752 2.35 11.092 2.548.678.031 1.366.041 2.048.041 3.34 0 6.409-.187 9.201-.578 1-.14 1.99-.302 2.98-.464a65 65 0 0 0 4.299-.875 62 62 0 0 0 4.059-1.151c.573-.193 1.14-.401 1.709-.61Zm840.893 0 2.51 11.211a90 90 0 0 1-7.95 2.006c-2.73.563-5.741 1.063-9.03 1.51a77 77 0 0 1-10.29.663 53 53 0 0 1-10.482-1 47 47 0 0 1-5.08-1.34c-4.799-1.562-8.977-4.073-12.551-7.533a32.8 32.8 0 0 1-5.778-7.626 43 43 0 0 1-2.668-5.84c-2.063-5.523-3.1-12.29-3.1-20.323a67 67 0 0 1 .656-9.59 49 49 0 0 1 2.36-9.57 44.7 44.7 0 0 1 3.96-8.258 36.5 36.5 0 0 1 4.32-5.632 34.4 34.4 0 0 1 12.384-8.45 40.2 40.2 0 0 1 12.38-2.74 47 47 0 0 1 3.09-.099c2.349-.01 4.688.208 6.986.651 2.522.49 4.96 1.34 7.242 2.527 4.012 2.12 7.33 4.99 9.952 8.622a35.7 35.7 0 0 1 4.605 8.762 44 44 0 0 1 1.25 3.95 58.8 58.8 0 0 1 1.903 13.81c.01.5.02 1 .02 1.5l-2.51 7.356h-54.04c0 3.465.452 6.924 1.338 10.372.891 3.46 2.423 6.59 4.6 9.373a23.3 23.3 0 0 0 6.32 5.569c.72.437 1.46.838 2.21 1.208q4.58 2.25 11.092 2.548c.678.031 1.36.041 2.048.041 3.34 0 6.414-.187 9.201-.578 1-.14 1.99-.302 2.98-.464a65 65 0 0 0 4.299-.875c1.36-.333 2.72-.724 4.053-1.151.579-.193 1.146-.401 1.72-.61Zm179.35 0 2.511 11.211a88 88 0 0 1-7.95 2.006c-2.73.563-5.742 1.063-9.03 1.51-2.923.392-5.85.6-8.79.652-.5.01-1 .01-1.5.01a52.6 52.6 0 0 1-10.472-1 48 48 0 0 1-5.09-1.339c-4.8-1.562-8.978-4.073-12.552-7.533a32.8 32.8 0 0 1-5.778-7.626 44.4 44.4 0 0 1-2.668-5.84c-2.063-5.523-3.09-12.29-3.09-20.323a69 69 0 0 1 .647-9.59 49 49 0 0 1 2.36-9.57 44 44 0 0 1 3.97-8.258 36 36 0 0 1 4.309-5.632c3.522-3.73 7.643-6.548 12.384-8.45a40.3 40.3 0 0 1 12.39-2.74 47 47 0 0 1 3.09-.099 36 36 0 0 1 6.976.651c2.522.49 4.96 1.34 7.242 2.527 4.018 2.12 7.331 4.99 9.952 8.622a36 36 0 0 1 4.616 8.762 44 44 0 0 1 1.24 3.95 58.8 58.8 0 0 1 1.912 13.81c.01.5.01 1 .01 1.5l-2.51 7.356h-54.04q0 5.199 1.338 10.372c.902 3.46 2.434 6.59 4.601 9.373a23.4 23.4 0 0 0 6.33 5.569c.709.437 1.449.838 2.21 1.208q4.564 2.25 11.092 2.548c.677.031 1.36.041 2.037.041 3.35 0 6.414-.187 9.201-.578 1-.14 1.99-.302 2.991-.464a66 66 0 0 0 4.288-.875c1.37-.333 2.72-.724 4.064-1.151a67 67 0 0 0 1.709-.61Zm-2153.25-69.933-2.679 11.21a52 52 0 0 0-1.99-.426c-1.61-.323-3.574-.652-5.872-1q-5.023-.75-10.212-.75c-5.017 0-9.118 1.01-12.286 3.01-3.183 2.006-5.663 4.6-7.45 7.778a32.5 32.5 0 0 0-3.47 9.461c-.084.36-.151.719-.214 1.078a66.5 66.5 0 0 0-1 10.612v.688a55 55 0 0 0 .365 6.533q.381 3.36 1.208 6.236a34.8 34.8 0 0 0 2.86 6.944 25.2 25.2 0 0 0 3.507 4.876 21.9 21.9 0 0 0 7.7 5.382c.204.078.392.15.584.229 3.126 1.172 6.42 1.75 9.879 1.75 2.34 0 4.6-.14 6.768-.422a65 65 0 0 0 3.512-.515q1.256-.212 2.521-.48a48 48 0 0 0 4.627-1.224c.219-.057.432-.13.64-.198l2.668 11.211a109 109 0 0 1-6.518 1.667c-.797.183-1.61.344-2.407.48a93 93 0 0 1-4.704.692c-1.777.22-3.57.36-5.357.428a63 63 0 0 1-3.433.073 63 63 0 0 1-8.44-.542 47 47 0 0 1-7.946-1.798 29.2 29.2 0 0 1-10.04-5.543 26 26 0 0 1-2.095-1.99 29.5 29.5 0 0 1-4.809-6.84 40 40 0 0 1-2.72-6.71q-2.123-6.853-2.505-16.176a96 96 0 0 1-.094-4.23c-.01-3.11.193-6.22.589-9.304.531-3.98 1.422-7.596 2.683-10.857a44 44 0 0 1 3.517-7.22 33.4 33.4 0 0 1 5.09-6.502c3.574-3.511 7.67-6.11 12.301-7.778 4.632-1.672 9.452-2.51 14.469-2.51 2.444 0 4.882.119 7.31.369.161.01.323.031.474.052 1.037.11 2.079.24 3.116.38a72 72 0 0 1 2.673.396c.28.042.547.094.818.141 2.23.453 4.35.89 6.361 1.339Zm334.78-30.95h14.057v78.461c0 5.043-.35 9.513-1.027 13.4a54 54 0 0 1-.729 3.422 20.6 20.6 0 0 1-3.423 7.35 19 19 0 0 1-3.689 3.767 37 37 0 0 1-3.652 2.501 52 52 0 0 1-4.168 2.271c-.709.35-1.418.678-2.142 1.011-1.636.73-3.34 1.35-5.07 1.85-1.776.53-3.73.99-5.84 1.4q-2.609.494-5.226.84l-1.844-11.873a89 89 0 0 0 4.59-.907c1.563-.359 2.99-.75 4.293-1.172 1.22-.38 2.418-.828 3.58-1.349a23.4 23.4 0 0 0 3.12-1.698c1.069-.704 1.99-1.454 2.767-2.272.354-.36.672-.74.974-1.14a14.3 14.3 0 0 0 2.277-4.648c.26-.89.454-1.792.573-2.714a64 64 0 0 0 .35-3.47c.156-2.047.229-4.287.229-6.73Zm1221.68 30.111 13.39-2.01v84.494q.03 5.307-.782 10.56c-.589 3.735-1.521 7.168-2.798 10.268a35 35 0 0 1-1.943 4.021 39.8 39.8 0 0 1-9.316 11.019 54 54 0 0 1-7.914 5.46l-6.857-11.879a41 41 0 0 0 4.429-3.063 30 30 0 0 0 3.761-3.548 29 29 0 0 0 4.1-5.923 30 30 0 0 0 .84-1.766 35.4 35.4 0 0 0 2.428-8.372c.443-2.839.661-5.72.661-8.622Zm259.998 83.99v-125.307l13.39-1.511v126.817ZM2015.76 2613.6a76.4 76.4 0 0 0-1.021-13.04c-1.495-8.803-4.637-15.883-9.436-21.25q-10.458-11.72-28.02-11.72a49.4 49.4 0 0 0-9.472.88 41 41 0 0 0-6.68 1.88c-4.85 1.85-9.029 4.61-12.54 8.289a35.6 35.6 0 0 0-6.029 8.658 45 45 0 0 0-2.173 5.142c-1 2.881-1.73 5.85-2.167 8.862-.51 3.287-.76 6.84-.76 10.627a79.3 79.3 0 0 0 1.02 13.092c1.501 8.84 4.638 16.02 9.441 21.542 6.966 8.028 16.308 12.05 28.016 12.05 3.61.015 7.2-.37 10.722-1.162 1.819-.412 3.6-.949 5.34-1.6 4.909-1.839 9.118-4.662 12.64-8.45a37.4 37.4 0 0 0 6.138-9.09 46 46 0 0 0 2.053-4.96c1.959-5.58 2.928-12.16 2.928-19.75Zm1811.78-6.772a35 35 0 0 0-1.48 3.641c-1.687 4.94-2.537 10.78-2.537 17.52 0 1.522.047 3.048.13 4.57.178 3.12.558 6.021 1.115 8.7a39.5 39.5 0 0 0 2.684 8.319 46 46 0 0 0 3.678 6.559 33 33 0 0 0 6.2 6.902c.12.11.24.209.37.308a35.3 35.3 0 0 0 12.593 6.642c1.71.49 3.428.901 5.18 1.22 2.708.51 5.449.77 8.21.78 4.116 0 8.587-.692 13.38-2.088a37 37 0 0 0 3.319-1.141 38.7 38.7 0 0 0 10.071-6.049 34.6 34.6 0 0 0 5.976-6.444 46.4 46.4 0 0 0 4.314-7.356c.6-1.292 1.115-2.61 1.569-3.954 1.677-5.059 2.521-11.05 2.521-17.968a76 76 0 0 0-.12-4.36c-.39-6.549-1.693-12.092-3.891-16.64a46 46 0 0 0-3.293-5.74 35.3 35.3 0 0 0-6.747-7.482 13 13 0 0 0-.38-.297 34.7 34.7 0 0 0-12.75-6.559 63 63 0 0 0-6.43-1.38 44 44 0 0 0-6.71-.542c-1.938 0-3.882.14-5.81.422-2.589.36-5.152.927-7.653 1.667-1.376.412-2.73.891-4.038 1.459a39.2 39.2 0 0 0-9.27 5.74c-4.12 3.403-7.517 7.925-10.2 13.551Zm-2559.14 62.99v-70.601c-.01-.74-.02-1.47-.057-2.199-.094-2.35-.344-5.428-.724-9.242-.016-.208-.037-.406-.058-.61l12.38-1.666 1.339 12.211h.172c2-2.573 3.96-4.803 5.85-6.694q2.238-2.25 4.79-4.126c.38-.271.76-.552 1.15-.813 1.699-1.14 3.34-1.818 4.919-2.021a7.5 7.5 0 0 1 1.021-.068c.287-.01.568-.02.86-.02 2.48-.032 5.767.26 9.847.859l-3.006 12.883c-3.491-.63-5.971-.922-7.461-.854-.084 0-.162.01-.24.01a7.1 7.1 0 0 0-2.652.552q-.994.407-2.027 1.11c-.463.318-.911.662-1.344 1.021a38.5 38.5 0 0 0-4.298 4.2c-.422.489-.829.978-1.22 1.489a67 67 0 0 0-3.662 4.918 99 99 0 0 0-2.199 3.443v56.217Zm1351.84 0v-70.601c0-.74-.01-1.47-.051-2.199q-.15-3.523-.72-9.242c-.02-.208-.036-.406-.057-.61l12.38-1.666 1.339 12.211h.161c2.011-2.573 3.96-4.803 5.857-6.694a41 41 0 0 1 4.793-4.126c.38-.271.76-.552 1.151-.813 1.699-1.14 3.34-1.818 4.919-2.021a7.4 7.4 0 0 1 1.021-.068c.287-.01.568-.02.86-.02 2.48-.032 5.757.26 9.847.859l-3.012 12.883c-3.485-.63-5.965-.922-7.455-.854-.084 0-.162.01-.24.01a7.1 7.1 0 0 0-2.652.552q-.993.407-2.032 1.11c-.469.318-.906.662-1.339 1.021a38.5 38.5 0 0 0-4.298 4.2c-.422.489-.829.978-1.23 1.489a67 67 0 0 0-3.652 4.918 81 81 0 0 0-2.199 3.443v56.217Zm840.889 0v-70.601c0-.74-.016-1.47-.047-2.199q-.15-3.523-.72-9.242l-.062-.61 12.38-1.666 1.339 12.211h.161c2.011-2.573 3.96-4.803 5.862-6.694 1.49-1.5 3.09-2.876 4.788-4.126.38-.271.76-.552 1.151-.813 1.699-1.14 3.34-1.818 4.919-2.021a7.5 7.5 0 0 1 1.02-.068c.293-.01.569-.02.86-.02 2.48-.032 5.763.26 9.853.859l-3.011 12.883c-3.491-.63-5.971-.922-7.461-.854-.079 0-.162.01-.24.01a7.2 7.2 0 0 0-2.652.552c-.657.271-1.34.641-2.027 1.11-.469.318-.912.662-1.339 1.021a38.5 38.5 0 0 0-4.304 4.2 50 50 0 0 0-1.23 1.489 67 67 0 0 0-3.646 4.918 86 86 0 0 0-2.204 3.443v56.217Zm463.284 0v-70.601c0-.74-.02-1.47-.052-2.199q-.148-3.523-.719-9.242a13 13 0 0 1-.073-.61l12.38-1.666 1.344 12.211h.167c2.01-2.573 3.96-4.803 5.861-6.694a40 40 0 0 1 4.778-4.126c.38-.271.77-.552 1.162-.813 1.688-1.14 3.329-1.818 4.908-2.021a7.5 7.5 0 0 1 1.02-.068c.293-.01.584-.02.86-.02 2.491-.032 5.773.26 9.853.859l-3.011 12.883c-3.48-.63-5.971-.922-7.451-.854-.078 0-.162.01-.25.01a7.1 7.1 0 0 0-2.636.552c-.673.271-1.345.641-2.043 1.11-.458.318-.912.662-1.339 1.021a39.5 39.5 0 0 0-4.303 4.2c-.417.489-.829.978-1.22 1.489a69 69 0 0 0-3.647 4.918 80 80 0 0 0-2.209 3.443v56.217Zm-2933.413 0v-114.101h14.051v114.1Zm550.279 0V2585.5l13.38-1.51v85.827Zm746.52 0V2585.5l13.39-1.51v85.827Zm953.324 0V2585.5l13.39-1.51v85.827Zm489.378 0V2585.5l13.38-1.51v85.827Zm107.24-41.657c-.01 2.98.199 5.96.652 8.909 1.006 6.45 3.22 11.539 6.627 15.269a24.05 24.05 0 0 0 14.84 7.611c1.599.23 3.209.339 4.819.328a30 30 0 0 0 8.09-1.01 21.97 21.97 0 0 0 10.984-6.85 24.9 24.9 0 0 0 4.69-8.357c1.448-4.251 2.167-9.32 2.167-15.233a59.5 59.5 0 0 0-.641-9.18c-.47-3.12-1.209-5.928-2.21-8.439a24.8 24.8 0 0 0-4.418-7.309 24 24 0 0 0-15.219-7.903 36 36 0 0 0-4.61-.297 31 31 0 0 0-7.842.938c-4.46 1.1-8.43 3.62-11.316 7.179a25.7 25.7 0 0 0-4.283 7.934c-.85 2.47-1.46 5.22-1.85 8.268a65 65 0 0 0-.48 8.142Zm-729.118 23.256v-53.378a48 48 0 0 1-1.23-.4l-2.454-.772c-.937-.166-2.136-.349-3.61-.557l-1.407-.193a54 54 0 0 0-5.663-.386 69 69 0 0 0-2.038-.03c-4.428 0-8.258.75-11.499 2.25-.182.078-.36.167-.552.26-3.34 1.667-6.101 3.986-8.279 6.94a29.3 29.3 0 0 0-4.251 8.439q-.28.882-.521 1.771a47.7 47.7 0 0 0-1.428 9.477 56.2 56.2 0 0 0 1.178 14.53 39.3 39.3 0 0 0 2.26 7.183 36 36 0 0 0 1.673 3.36 26.6 26.6 0 0 0 3.387 4.689c.953 1.037 2 2 3.142 2.84q3.85 2.836 9.2 2.838c1.939-.01 3.872-.27 5.742-.781.6-.156 1.199-.35 1.787-.557a54 54 0 0 0 7.362-3.173 68 68 0 0 0 4.46-2.568 82 82 0 0 0 2.741-1.782Zm-165.97 0v-53.206c-3.314-.922-6.024-1.552-8.113-1.901-.417-.073-.839-.14-1.26-.193a56 56 0 0 0-6.857-.417c-4.434 0-8.264.75-11.504 2.25-.178.079-.37.168-.547.261-3.34 1.667-6.102 3.986-8.28 6.94a28.9 28.9 0 0 0-4.251 8.439q-.28.882-.521 1.771a47 47 0 0 0-1.428 9.477 55.5 55.5 0 0 0 1.178 14.53 38.5 38.5 0 0 0 2.261 7.183 34 34 0 0 0 1.667 3.36 27.4 27.4 0 0 0 3.382 4.689 22.3 22.3 0 0 0 3.152 2.84q3.838 2.836 9.201 2.838c1.787 0 3.57-.229 5.299-.661a25 25 0 0 0 2.308-.677 52 52 0 0 0 5.46-2.188c.61-.292 1.22-.594 1.819-.902a51 51 0 0 0 3.652-2.13 67 67 0 0 0 3.381-2.303Zm750.21 0v-53.206c-3.315-.922-6.024-1.552-8.113-1.901-.417-.073-.839-.14-1.261-.193a56 56 0 0 0-6.857-.417c-4.433 0-8.273.75-11.498 2.25a8 8 0 0 0-.553.261c-3.35 1.667-6.111 3.986-8.279 6.94a29.2 29.2 0 0 0-4.262 8.439q-.267.882-.51 1.771a47 47 0 0 0-1.428 9.477c-.052.942-.083 1.88-.083 2.823 0 3.897.422 7.81 1.26 11.706a38.5 38.5 0 0 0 2.262 7.184 34 34 0 0 0 1.672 3.36 27 27 0 0 0 3.377 4.689c.963 1.037 2.01 2 3.152 2.84q3.839 2.836 9.2 2.838c1.788 0 3.56-.229 5.3-.661a25 25 0 0 0 2.308-.677 52 52 0 0 0 5.46-2.188c.61-.292 1.22-.594 1.818-.902a53 53 0 0 0 3.653-2.13 67 67 0 0 0 3.381-2.303Zm-2322.572-1.177v-19.073q-3.344.165-6.362.344c-2.006.11-3.986.25-5.94.406-1.917.172-3.647.36-5.189.584-.031 0-.057.01-.078.01q-2.972.359-5.903.959c-3.82.786-6.898 1.818-9.227 3.079q-1.008.54-1.939 1.23c-3.345 2.51-5.012 6.11-5.012 10.788 0 3.913 1.188 6.83 3.59 8.784q3.479 2.843 9.092 2.927h.37c5.345 0 10.118-.916 14.297-2.76 4.183-1.84 8.279-4.257 12.3-7.278Zm1391.328 0v-19.073q-3.346.165-6.356.344c-2.011.11-3.991.25-5.94.406a97 97 0 0 0-5.194.584c-.026 0-.047.01-.078.01-1.98.24-3.95.558-5.898.959-3.82.786-6.893 1.818-9.233 3.079-.667.36-1.318.77-1.928 1.23-3.35 2.51-5.022 6.11-5.022 10.788 0 3.913 1.203 6.83 3.59 8.784 2.329 1.896 5.35 2.87 9.091 2.927h.37c5.351 0 10.118-.916 14.302-2.76 4.19-1.84 8.28-4.257 12.296-7.278Zm-1567.677-29.779h42.17c-.01-.213-.01-.432-.03-.64-.063-.943-.209-2.454-.48-4.543a28.4 28.4 0 0 0-1.11-5.017c-.349-1.14-.76-2.25-1.23-3.35-1.229-2.901-3.12-5.49-5.689-7.783a13.05 13.05 0 0 0-5.96-2.98 19 19 0 0 0-4.241-.448 28 28 0 0 0-4.919.407c-1.88.343-3.584.89-5.11 1.651a16 16 0 0 0-1.522.87 27 27 0 0 0-4.71 3.86 21.3 21.3 0 0 0-2.48 3.08 28 28 0 0 0-2.642 4.959 22 22 0 0 0-1.037 3.24c-.203.813-.37 1.63-.531 2.454q-.478 2.515-.48 4.24Zm476.159 0h42.16c0-.213 0-.432-.02-.64-.058-.943-.22-2.454-.48-4.543a28.4 28.4 0 0 0-1.11-5.017c-.349-1.14-.76-2.25-1.23-3.35-1.229-2.901-3.12-5.49-5.689-7.783a13.05 13.05 0 0 0-5.96-2.98 19 19 0 0 0-4.241-.448c-1.652-.01-3.298.13-4.919.407-1.88.343-3.579.89-5.11 1.651a16 16 0 0 0-1.522.87 26.6 26.6 0 0 0-4.71 3.86 21.7 21.7 0 0 0-2.48 3.08 27 27 0 0 0-2.637 4.959 22 22 0 0 0-1.042 3.24 44 44 0 0 0-.531 2.454q-.478 2.515-.48 4.24Zm665.549 0h42.171c-.01-.213-.01-.432-.031-.64-.057-.943-.219-2.454-.48-4.543a28.4 28.4 0 0 0-1.11-5.017c-.348-1.14-.76-2.25-1.229-3.35-1.23-2.901-3.12-5.49-5.69-7.783a13.05 13.05 0 0 0-5.96-2.98 19 19 0 0 0-4.24-.448c-1.652-.01-3.299.13-4.92.407-1.88.343-3.579.89-5.11 1.651a16 16 0 0 0-1.522.87 26.6 26.6 0 0 0-4.71 3.86 21.7 21.7 0 0 0-2.48 3.08 27 27 0 0 0-2.636 4.959 22 22 0 0 0-1.042 3.24c-.198.813-.37 1.63-.532 2.454q-.478 2.515-.479 4.24Zm210.142 0h42.161c0-.213-.01-.432-.02-.64-.063-.943-.225-2.454-.48-4.543a29.3 29.3 0 0 0-1.11-5.017c-.354-1.14-.76-2.25-1.234-3.35-1.23-2.901-3.116-5.49-5.69-7.783a13.05 13.05 0 0 0-5.96-2.98 19 19 0 0 0-4.236-.448 28.3 28.3 0 0 0-4.924.407c-1.876.343-3.59.89-5.106 1.651a16 16 0 0 0-1.521.87 26.4 26.4 0 0 0-4.71 3.86 21.3 21.3 0 0 0-2.48 3.08 27 27 0 0 0-2.642 4.959 22 22 0 0 0-1.037 3.24q-.304 1.219-.531 2.454c-.323 1.677-.48 3.09-.48 4.24Zm840.888 0h42.161c0-.213-.01-.432-.02-.64-.058-.943-.22-2.454-.48-4.543a28.4 28.4 0 0 0-1.11-5.017c-.349-1.14-.77-2.25-1.23-3.35-1.229-2.901-3.12-5.49-5.689-7.783a13.1 13.1 0 0 0-5.96-2.98 19 19 0 0 0-4.242-.448c-1.651-.01-3.298.13-4.918.407-1.88.343-3.59.89-5.111 1.651a16 16 0 0 0-1.522.87 26.6 26.6 0 0 0-4.71 3.86 21.7 21.7 0 0 0-2.48 3.08 27.6 27.6 0 0 0-2.646 4.959 23 23 0 0 0-1.032 3.24 44 44 0 0 0-.531 2.454q-.479 2.515-.48 4.24Zm179.361 0h42.16c0-.213-.01-.432-.03-.64-.053-.943-.209-2.454-.47-4.543a28.4 28.4 0 0 0-1.11-5.017c-.359-1.14-.77-2.25-1.24-3.35-1.218-2.901-3.12-5.49-5.678-7.783a13.1 13.1 0 0 0-5.96-2.98 19 19 0 0 0-4.252-.448c-1.652-.01-3.288.13-4.919.407-1.88.343-3.579.89-5.1 1.651-.532.26-1.032.552-1.522.87a26.7 26.7 0 0 0-4.72 3.86 22.4 22.4 0 0 0-2.48 3.08 27.6 27.6 0 0 0-2.637 4.959 23 23 0 0 0-1.042 3.24c-.198.813-.37 1.63-.531 2.454-.318 1.677-.469 3.09-.469 4.24Zm404.712 39.49c0-2.684.948-4.992 2.85-6.95a9.4 9.4 0 0 1 3.079-2.152 9.6 9.6 0 0 1 3.689-.771h.26c2.902 0 5.351.969 7.362 2.923.917.89 1.667 1.938 2.21 3.1a9.3 9.3 0 0 1 .797 3.85 9.4 9.4 0 0 1-1 4.36 9.8 9.8 0 0 1-2.007 2.667 10.33 10.33 0 0 1-7.304 2.84h-.058c-1.36.02-2.71-.24-3.96-.761a9.6 9.6 0 0 1-3.068-2.08q-2.851-2.848-2.85-7.027Zm-2431.011-101.89a9.3 9.3 0 0 0-.641 3.506v.12a8.9 8.9 0 0 0 .651 3.433 8.9 8.9 0 0 0 1.938 2.891 8.9 8.9 0 0 0 2.939 1.96 9.6 9.6 0 0 0 3.512.64c.078 0 .161 0 .24-.01a9.43 9.43 0 0 0 6.528-2.59 8.4 8.4 0 0 0 1.943-2.62 8.7 8.7 0 0 0 .818-3.824v-.297a8.6 8.6 0 0 0-.74-3.35 8.4 8.4 0 0 0-2.021-2.792c-1.84-1.73-4.096-2.59-6.768-2.59h-.13a8.5 8.5 0 0 0-3.419.652 8.6 8.6 0 0 0-2.902 1.938 8.6 8.6 0 0 0-1.948 2.933Zm746.531 0a9.3 9.3 0 0 0-.64 3.506v.12a8.7 8.7 0 0 0 .65 3.433 8.9 8.9 0 0 0 1.939 2.891 8.8 8.8 0 0 0 2.928 1.96 9.6 9.6 0 0 0 3.511.64c.089 0 .172 0 .25-.01a9.45 9.45 0 0 0 6.529-2.59 8.7 8.7 0 0 0 1.943-2.62 8.7 8.7 0 0 0 .818-3.824c0-.099 0-.198-.01-.297a8.4 8.4 0 0 0-.73-3.35 8.5 8.5 0 0 0-2.021-2.792c-1.84-1.73-4.1-2.59-6.779-2.59h-.12a8.5 8.5 0 0 0-3.423.652 8.6 8.6 0 0 0-2.896 1.938 8.6 8.6 0 0 0-1.949 2.933Zm730.296 0a9.3 9.3 0 0 0-.64 3.506v.12a8.7 8.7 0 0 0 .65 3.433 8.9 8.9 0 0 0 1.944 2.891 8.7 8.7 0 0 0 2.928 1.96 9.6 9.6 0 0 0 3.512.64c.089 0 .167 0 .25-.01a9.47 9.47 0 0 0 6.528-2.59 8.8 8.8 0 0 0 1.939-2.62c.562-1.193.838-2.5.823-3.824 0-.099 0-.198-.01-.297a8.4 8.4 0 0 0-.73-3.35 8.7 8.7 0 0 0-2.022-2.792c-1.839-1.73-4.1-2.59-6.778-2.59h-.12a8.5 8.5 0 0 0-3.423.652 8.6 8.6 0 0 0-2.897 1.938 8.5 8.5 0 0 0-1.954 2.933Zm223.022 0a9.3 9.3 0 0 0-.64 3.506v.12a8.7 8.7 0 0 0 .65 3.433 8.9 8.9 0 0 0 1.94 2.891 8.8 8.8 0 0 0 2.938 1.96 9.6 9.6 0 0 0 3.5.64c.09 0 .173 0 .251-.01a9.45 9.45 0 0 0 6.534-2.59 8.7 8.7 0 0 0 1.938-2.62 8.7 8.7 0 0 0 .818-3.824v-.297a8.6 8.6 0 0 0-.74-3.35 8.45 8.45 0 0 0-2.016-2.792c-1.845-1.73-4.1-2.59-6.784-2.59h-.12a8.5 8.5 0 0 0-3.418.652 8.6 8.6 0 0 0-2.902 1.938 8.6 8.6 0 0 0-1.949 2.933Zm489.373 0a9.5 9.5 0 0 0-.641 3.506v.12a8.8 8.8 0 0 0 .656 3.433 8.6 8.6 0 0 0 1.944 2.891 8.7 8.7 0 0 0 2.928 1.96 9.6 9.6 0 0 0 3.511.64c.079 0 .167 0 .25-.01a9.47 9.47 0 0 0 6.529-2.59 8.8 8.8 0 0 0 1.938-2.62c.552-1.193.834-2.5.823-3.824 0-.099-.01-.198-.01-.297a8.3 8.3 0 0 0-.74-3.35 8.4 8.4 0 0 0-2.011-2.792c-1.84-1.73-4.1-2.59-6.779-2.59h-.12a8.6 8.6 0 0 0-3.433.652 8.5 8.5 0 0 0-2.886 1.938 8.7 8.7 0 0 0-1.96 2.933Zm0 0" style="fill-rule:evenodd;fill:#000;fill-opacity:1;stroke-width:.944882;stroke-linecap:round;stroke-linejoin:miter;stroke:#000;stroke-opacity:1;stroke-miterlimit:4" transform="scale(.74973 .74982)"/><path d="M4313.999 2444.498h-3646" style="fill:none;stroke-width:1;stroke-linecap:butt;stroke-linejoin:miter;stroke:#000;stroke-opacity:1;stroke-miterlimit:4" transform="scale(.74973 .74982)"/></g></svg>